<?xml version="1.0" encoding="UTF-8" standalone="no"?>
<!-- Created with Inkscape (http://www.inkscape.org/) -->

<svg
   xmlns:dc="http://purl.org/dc/elements/1.1/"
   xmlns:cc="http://creativecommons.org/ns#"
   xmlns:rdf="http://www.w3.org/1999/02/22-rdf-syntax-ns#"
   xmlns:svg="http://www.w3.org/2000/svg"
   xmlns="http://www.w3.org/2000/svg"
   xmlns:sodipodi="http://sodipodi.sourceforge.net/DTD/sodipodi-0.dtd"
   xmlns:inkscape="http://www.inkscape.org/namespaces/inkscape"
   width="450"
   height="450"
   id="svg2"
   version="1.1"
   inkscape:version="0.48.2 r9819"
   sodipodi:docname="morphology_overview_bio.svg">
  <sodipodi:namedview
     id="base"
     pagecolor="#ffffff"
     bordercolor="#666666"
     borderopacity="1.0"
     inkscape:pageopacity="0.0"
     inkscape:pageshadow="2"
     inkscape:zoom="0.7"
     inkscape:cx="280.57014"
     inkscape:cy="235.03492"
     inkscape:document-units="px"
     inkscape:current-layer="layer1"
     showgrid="false"
     inkscape:window-width="1352"
     inkscape:window-height="691"
     inkscape:window-x="285"
     inkscape:window-y="221"
     inkscape:window-maximized="0"
     showguides="true"
     inkscape:guide-bbox="true"
     units="in" />
  <defs
     id="defs4">
    <marker
       style="overflow:visible"
       id="Arrow1Mend"
       refX="0"
       refY="0"
       orient="auto"
       inkscape:stockid="Arrow1Mend">
      <path
         transform="matrix(-0.4,0,0,-0.4,-4,0)"
         style="fill-rule:evenodd;stroke:#000000;stroke-width:1pt;marker-start:none"
         d="M 0,0 5,-5 -12.5,0 5,5 0,0 z"
         id="path4806"
         inkscape:connector-curvature="0" />
    </marker>
    <marker
       style="overflow:visible"
       id="Arrow1Lstart"
       refX="0"
       refY="0"
       orient="auto"
       inkscape:stockid="Arrow1Lstart">
      <path
         transform="matrix(0.8,0,0,0.8,10,0)"
         style="fill-rule:evenodd;stroke:#000000;stroke-width:1pt;marker-start:none"
         d="M 0,0 5,-5 -12.5,0 5,5 0,0 z"
         id="path4797"
         inkscape:connector-curvature="0" />
    </marker>
    <marker
       style="overflow:visible"
       id="Arrow1Lend"
       refX="0"
       refY="0"
       orient="auto"
       inkscape:stockid="Arrow1Lend">
      <path
         transform="matrix(-0.8,0,0,-0.8,-10,0)"
         style="fill-rule:evenodd;stroke:#000000;stroke-width:1pt;marker-start:none"
         d="M 0,0 5,-5 -12.5,0 5,5 0,0 z"
         id="path4800"
         inkscape:connector-curvature="0" />
    </marker>
    <marker
       style="overflow:visible"
       id="Arrow1MendY"
       refX="0"
       refY="0"
       orient="auto"
       inkscape:stockid="Arrow1MendY">
      <path
         transform="matrix(-0.4,0,0,-0.4,-4,0)"
         style="fill:#ff6600;fill-rule:evenodd;stroke:#ff6600;stroke-width:1pt;marker-start:none"
         d="M 0,0 5,-5 -12.5,0 5,5 0,0 z"
         id="path5865"
         inkscape:connector-curvature="0" />
    </marker>
    <marker
       style="overflow:visible"
       id="Arrow1Mendi"
       refX="0"
       refY="0"
       orient="auto"
       inkscape:stockid="Arrow1Mendi">
      <path
         transform="matrix(-0.4,0,0,-0.4,-4,0)"
         style="fill:#ff6600;fill-rule:evenodd;stroke:#ff6600;stroke-width:1pt;marker-start:none"
         d="M 0,0 5,-5 -12.5,0 5,5 0,0 z"
         id="path5868"
         inkscape:connector-curvature="0" />
    </marker>
    <marker
       style="overflow:visible"
       id="Arrow1MendS"
       refX="0"
       refY="0"
       orient="auto"
       inkscape:stockid="Arrow1MendS">
      <path
         transform="matrix(-0.4,0,0,-0.4,-4,0)"
         style="fill:#ff6600;fill-rule:evenodd;stroke:#ff6600;stroke-width:1pt;marker-start:none"
         d="M 0,0 5,-5 -12.5,0 5,5 0,0 z"
         id="path5871"
         inkscape:connector-curvature="0" />
    </marker>
    <marker
       style="overflow:visible"
       id="Arrow1Mendv"
       refX="0"
       refY="0"
       orient="auto"
       inkscape:stockid="Arrow1Mendv">
      <path
         transform="matrix(-0.4,0,0,-0.4,-4,0)"
         style="fill:#ff6600;fill-rule:evenodd;stroke:#ff6600;stroke-width:1pt;marker-start:none"
         d="M 0,0 5,-5 -12.5,0 5,5 0,0 z"
         id="path5874"
         inkscape:connector-curvature="0" />
    </marker>
    <marker
       style="overflow:visible"
       id="Arrow1MendB"
       refX="0"
       refY="0"
       orient="auto"
       inkscape:stockid="Arrow1MendB">
      <path
         transform="matrix(-0.4,0,0,-0.4,-4,0)"
         style="fill:#ff6600;fill-rule:evenodd;stroke:#ff6600;stroke-width:1pt;marker-start:none"
         d="M 0,0 5,-5 -12.5,0 5,5 0,0 z"
         id="path5877"
         inkscape:connector-curvature="0" />
    </marker>
    <marker
       style="overflow:visible"
       id="Arrow1Mendq"
       refX="0"
       refY="0"
       orient="auto"
       inkscape:stockid="Arrow1Mendq">
      <path
         transform="matrix(-0.4,0,0,-0.4,-4,0)"
         style="fill:#ff6600;fill-rule:evenodd;stroke:#ff6600;stroke-width:1pt;marker-start:none"
         d="M 0,0 5,-5 -12.5,0 5,5 0,0 z"
         id="path5880"
         inkscape:connector-curvature="0" />
    </marker>
    <marker
       style="overflow:visible"
       id="Arrow1Mendf"
       refX="0"
       refY="0"
       orient="auto"
       inkscape:stockid="Arrow1Mendf">
      <path
         transform="matrix(-0.4,0,0,-0.4,-4,0)"
         style="fill:#ff6600;fill-rule:evenodd;stroke:#ff6600;stroke-width:1pt;marker-start:none"
         d="M 0,0 5,-5 -12.5,0 5,5 0,0 z"
         id="path5883"
         inkscape:connector-curvature="0" />
    </marker>
    <marker
       style="overflow:visible"
       id="Arrow1Mend6"
       refX="0"
       refY="0"
       orient="auto"
       inkscape:stockid="Arrow1Mend6">
      <path
         transform="matrix(-0.4,0,0,-0.4,-4,0)"
         style="fill:#ff6600;fill-rule:evenodd;stroke:#ff6600;stroke-width:1pt;marker-start:none"
         d="M 0,0 5,-5 -12.5,0 5,5 0,0 z"
         id="path5886"
         inkscape:connector-curvature="0" />
    </marker>
    <marker
       style="overflow:visible"
       id="Arrow1MendYt"
       refX="0"
       refY="0"
       orient="auto"
       inkscape:stockid="Arrow1MendYt">
      <path
         transform="matrix(-0.4,0,0,-0.4,-4,0)"
         style="fill:#ff6600;fill-rule:evenodd;stroke:#ff6600;stroke-width:1pt;marker-start:none"
         d="M 0,0 5,-5 -12.5,0 5,5 0,0 z"
         id="path5889"
         inkscape:connector-curvature="0" />
    </marker>
    <marker
       style="overflow:visible"
       id="Arrow1MendYk"
       refX="0"
       refY="0"
       orient="auto"
       inkscape:stockid="Arrow1MendYk">
      <path
         transform="matrix(-0.4,0,0,-0.4,-4,0)"
         style="fill:#ff6600;fill-rule:evenodd;stroke:#ff6600;stroke-width:1pt;marker-start:none"
         d="M 0,0 5,-5 -12.5,0 5,5 0,0 z"
         id="path5892"
         inkscape:connector-curvature="0" />
    </marker>
    <marker
       style="overflow:visible"
       id="Arrow1Mend7"
       refX="0"
       refY="0"
       orient="auto"
       inkscape:stockid="Arrow1Mend7">
      <path
         transform="matrix(-0.4,0,0,-0.4,-4,0)"
         style="fill:#ff6600;fill-rule:evenodd;stroke:#ff6600;stroke-width:1pt;marker-start:none"
         d="M 0,0 5,-5 -12.5,0 5,5 0,0 z"
         id="path5895"
         inkscape:connector-curvature="0" />
    </marker>
    <marker
       style="overflow:visible"
       id="Arrow1Mend9"
       refX="0"
       refY="0"
       orient="auto"
       inkscape:stockid="Arrow1Mend9">
      <path
         transform="matrix(-0.4,0,0,-0.4,-4,0)"
         style="fill:#ff6600;fill-rule:evenodd;stroke:#ff6600;stroke-width:1pt;marker-start:none"
         d="M 0,0 5,-5 -12.5,0 5,5 0,0 z"
         id="path5898"
         inkscape:connector-curvature="0" />
    </marker>
    <marker
       style="overflow:visible"
       id="Arrow1Mendq7"
       refX="0"
       refY="0"
       orient="auto"
       inkscape:stockid="Arrow1Mendq7">
      <path
         transform="matrix(-0.4,0,0,-0.4,-4,0)"
         style="fill:#ff6600;fill-rule:evenodd;stroke:#ff6600;stroke-width:1pt;marker-start:none"
         d="M 0,0 5,-5 -12.5,0 5,5 0,0 z"
         id="path5901"
         inkscape:connector-curvature="0" />
    </marker>
    <marker
       style="overflow:visible"
       id="Arrow1MendG"
       refX="0"
       refY="0"
       orient="auto"
       inkscape:stockid="Arrow1MendG">
      <path
         transform="matrix(-0.4,0,0,-0.4,-4,0)"
         style="fill:#ff6600;fill-rule:evenodd;stroke:#ff6600;stroke-width:1pt;marker-start:none"
         d="M 0,0 5,-5 -12.5,0 5,5 0,0 z"
         id="path5904"
         inkscape:connector-curvature="0" />
    </marker>
    <marker
       style="overflow:visible"
       id="Arrow1MendfT"
       refX="0"
       refY="0"
       orient="auto"
       inkscape:stockid="Arrow1MendfT">
      <path
         transform="matrix(-0.4,0,0,-0.4,-4,0)"
         style="fill:#ff6600;fill-rule:evenodd;stroke:#ff6600;stroke-width:1pt;marker-start:none"
         d="M 0,0 5,-5 -12.5,0 5,5 0,0 z"
         id="path5907"
         inkscape:connector-curvature="0" />
    </marker>
    <marker
       style="overflow:visible"
       id="Arrow1Mend7Y"
       refX="0"
       refY="0"
       orient="auto"
       inkscape:stockid="Arrow1Mend7Y">
      <path
         transform="matrix(-0.4,0,0,-0.4,-4,0)"
         style="fill:#ff6600;fill-rule:evenodd;stroke:#ff6600;stroke-width:1pt;marker-start:none"
         d="M 0,0 5,-5 -12.5,0 5,5 0,0 z"
         id="path5910"
         inkscape:connector-curvature="0" />
    </marker>
    <marker
       style="overflow:visible"
       id="Arrow1MendM"
       refX="0"
       refY="0"
       orient="auto"
       inkscape:stockid="Arrow1MendM">
      <path
         transform="matrix(-0.4,0,0,-0.4,-4,0)"
         style="fill:#ff6600;fill-rule:evenodd;stroke:#ff6600;stroke-width:1pt;marker-start:none"
         d="M 0,0 5,-5 -12.5,0 5,5 0,0 z"
         id="path5913"
         inkscape:connector-curvature="0" />
    </marker>
    <marker
       style="overflow:visible"
       id="Arrow1MendF"
       refX="0"
       refY="0"
       orient="auto"
       inkscape:stockid="Arrow1MendF">
      <path
         transform="matrix(-0.4,0,0,-0.4,-4,0)"
         style="fill:#ff6600;fill-rule:evenodd;stroke:#ff6600;stroke-width:1pt;marker-start:none"
         d="M 0,0 5,-5 -12.5,0 5,5 0,0 z"
         id="path5916"
         inkscape:connector-curvature="0" />
    </marker>
    <marker
       style="overflow:visible"
       id="Arrow1MendL"
       refX="0"
       refY="0"
       orient="auto"
       inkscape:stockid="Arrow1MendL">
      <path
         transform="matrix(-0.4,0,0,-0.4,-4,0)"
         style="fill:#ff6600;fill-rule:evenodd;stroke:#ff6600;stroke-width:1pt;marker-start:none"
         d="M 0,0 5,-5 -12.5,0 5,5 0,0 z"
         id="path5919"
         inkscape:connector-curvature="0" />
    </marker>
    <marker
       style="overflow:visible"
       id="Arrow1Mendu"
       refX="0"
       refY="0"
       orient="auto"
       inkscape:stockid="Arrow1Mendu">
      <path
         transform="matrix(-0.4,0,0,-0.4,-4,0)"
         style="fill:#ff6600;fill-rule:evenodd;stroke:#ff6600;stroke-width:1pt;marker-start:none"
         d="M 0,0 5,-5 -12.5,0 5,5 0,0 z"
         id="path5922"
         inkscape:connector-curvature="0" />
    </marker>
    <marker
       style="overflow:visible"
       id="Arrow1Mendy"
       refX="0"
       refY="0"
       orient="auto"
       inkscape:stockid="Arrow1Mendy">
      <path
         transform="matrix(-0.4,0,0,-0.4,-4,0)"
         style="fill:#ff6600;fill-rule:evenodd;stroke:#ff6600;stroke-width:1pt;marker-start:none"
         d="M 0,0 5,-5 -12.5,0 5,5 0,0 z"
         id="path5925"
         inkscape:connector-curvature="0" />
    </marker>
    <marker
       style="overflow:visible"
       id="Arrow1Mende"
       refX="0"
       refY="0"
       orient="auto"
       inkscape:stockid="Arrow1Mende">
      <path
         transform="matrix(-0.4,0,0,-0.4,-4,0)"
         style="fill:#ff6600;fill-rule:evenodd;stroke:#ff6600;stroke-width:1pt;marker-start:none"
         d="M 0,0 5,-5 -12.5,0 5,5 0,0 z"
         id="path5928"
         inkscape:connector-curvature="0" />
    </marker>
    <marker
       style="overflow:visible"
       id="Arrow1Mendn"
       refX="0"
       refY="0"
       orient="auto"
       inkscape:stockid="Arrow1Mendn">
      <path
         transform="matrix(-0.4,0,0,-0.4,-4,0)"
         style="fill:#ff6600;fill-rule:evenodd;stroke:#ff6600;stroke-width:1pt;marker-start:none"
         d="M 0,0 5,-5 -12.5,0 5,5 0,0 z"
         id="path5931"
         inkscape:connector-curvature="0" />
    </marker>
    <marker
       style="overflow:visible"
       id="Arrow1Mendna"
       refX="0"
       refY="0"
       orient="auto"
       inkscape:stockid="Arrow1Mendna">
      <path
         transform="matrix(-0.4,0,0,-0.4,-4,0)"
         style="fill:#ff6600;fill-rule:evenodd;stroke:#ff6600;stroke-width:1pt;marker-start:none"
         d="M 0,0 5,-5 -12.5,0 5,5 0,0 z"
         id="path5934"
         inkscape:connector-curvature="0" />
    </marker>
    <marker
       style="overflow:visible"
       id="Arrow1MendC"
       refX="0"
       refY="0"
       orient="auto"
       inkscape:stockid="Arrow1MendC">
      <path
         transform="matrix(-0.4,0,0,-0.4,-4,0)"
         style="fill:#ff6600;fill-rule:evenodd;stroke:#ff6600;stroke-width:1pt;marker-start:none"
         d="M 0,0 5,-5 -12.5,0 5,5 0,0 z"
         id="path5937"
         inkscape:connector-curvature="0" />
    </marker>
    <marker
       style="overflow:visible"
       id="Arrow1MendCj"
       refX="0"
       refY="0"
       orient="auto"
       inkscape:stockid="Arrow1MendCj">
      <path
         transform="matrix(-0.4,0,0,-0.4,-4,0)"
         style="fill:#ff6600;fill-rule:evenodd;stroke:#ff6600;stroke-width:1pt;marker-start:none"
         d="M 0,0 5,-5 -12.5,0 5,5 0,0 z"
         id="path5940"
         inkscape:connector-curvature="0" />
    </marker>
    <marker
       style="overflow:visible"
       id="Arrow1MendiN"
       refX="0"
       refY="0"
       orient="auto"
       inkscape:stockid="Arrow1MendiN">
      <path
         transform="matrix(-0.4,0,0,-0.4,-4,0)"
         style="fill:#ff6600;fill-rule:evenodd;stroke:#ff6600;stroke-width:1pt;marker-start:none"
         d="M 0,0 5,-5 -12.5,0 5,5 0,0 z"
         id="path5943"
         inkscape:connector-curvature="0" />
    </marker>
    <marker
       style="overflow:visible"
       id="Arrow1MendO"
       refX="0"
       refY="0"
       orient="auto"
       inkscape:stockid="Arrow1MendO">
      <path
         transform="matrix(-0.4,0,0,-0.4,-4,0)"
         style="fill:#ff6600;fill-rule:evenodd;stroke:#ff6600;stroke-width:1pt;marker-start:none"
         d="M 0,0 5,-5 -12.5,0 5,5 0,0 z"
         id="path5946"
         inkscape:connector-curvature="0" />
    </marker>
    <marker
       style="overflow:visible"
       id="Arrow1MendB-1"
       refX="0"
       refY="0"
       orient="auto"
       inkscape:stockid="Arrow1MendB">
      <path
         inkscape:connector-curvature="0"
         transform="matrix(-0.4,0,0,-0.4,-4,0)"
         style="fill:#ff6600;fill-rule:evenodd;stroke:#ff6600;stroke-width:1pt;marker-start:none"
         d="M 0,0 5,-5 -12.5,0 5,5 0,0 z"
         id="path5877-3" />
    </marker>
    <marker
       style="overflow:visible"
       id="Arrow1MendB-5"
       refX="0"
       refY="0"
       orient="auto"
       inkscape:stockid="Arrow1MendB">
      <path
         inkscape:connector-curvature="0"
         transform="matrix(-0.4,0,0,-0.4,-4,0)"
         style="fill:#ff6600;fill-rule:evenodd;stroke:#ff6600;stroke-width:1pt;marker-start:none"
         d="M 0,0 5,-5 -12.5,0 5,5 0,0 z"
         id="path5877-6" />
    </marker>
    <marker
       style="overflow:visible"
       id="Arrow1MendB-7"
       refX="0"
       refY="0"
       orient="auto"
       inkscape:stockid="Arrow1MendB">
      <path
         inkscape:connector-curvature="0"
         transform="matrix(-0.4,0,0,-0.4,-4,0)"
         style="fill:#ff6600;fill-rule:evenodd;stroke:#ff6600;stroke-width:1pt;marker-start:none"
         d="M 0,0 5,-5 -12.5,0 5,5 0,0 z"
         id="path5877-2" />
    </marker>
    <marker
       style="overflow:visible"
       id="Arrow1MendL-5"
       refX="0"
       refY="0"
       orient="auto"
       inkscape:stockid="Arrow1MendL">
      <path
         transform="matrix(-0.4,0,0,-0.4,-4,0)"
         style="fill:#ff6600;fill-rule:evenodd;stroke:#ff6600;stroke-width:1pt;marker-start:none"
         d="M 0,0 5,-5 -12.5,0 5,5 0,0 z"
         id="path5919-3"
         inkscape:connector-curvature="0" />
    </marker>
    <marker
       style="overflow:visible"
       id="Arrow1MendO-3"
       refX="0"
       refY="0"
       orient="auto"
       inkscape:stockid="Arrow1MendO">
      <path
         transform="matrix(-0.4,0,0,-0.4,-4,0)"
         style="fill:#ff6600;fill-rule:evenodd;stroke:#ff6600;stroke-width:1pt;marker-start:none"
         d="M 0,0 5,-5 -12.5,0 5,5 0,0 z"
         id="path5946-3"
         inkscape:connector-curvature="0" />
    </marker>
    <marker
       style="overflow:visible"
       id="Arrow1MendL-2"
       refX="0"
       refY="0"
       orient="auto"
       inkscape:stockid="Arrow1MendL">
      <path
         transform="matrix(-0.4,0,0,-0.4,-4,0)"
         style="fill:#ff6600;fill-rule:evenodd;stroke:#ff6600;stroke-width:1pt;marker-start:none"
         d="M 0,0 5,-5 -12.5,0 5,5 0,0 z"
         id="path5919-8"
         inkscape:connector-curvature="0" />
    </marker>
    <marker
       style="overflow:visible"
       id="Arrow1MendO-9"
       refX="0"
       refY="0"
       orient="auto"
       inkscape:stockid="Arrow1MendO">
      <path
         transform="matrix(-0.4,0,0,-0.4,-4,0)"
         style="fill:#ff6600;fill-rule:evenodd;stroke:#ff6600;stroke-width:1pt;marker-start:none"
         d="M 0,0 5,-5 -12.5,0 5,5 0,0 z"
         id="path5946-2"
         inkscape:connector-curvature="0" />
    </marker>
    <marker
       style="overflow:visible"
       id="Arrow1MendB-54"
       refX="0"
       refY="0"
       orient="auto"
       inkscape:stockid="Arrow1MendB">
      <path
         transform="matrix(-0.4,0,0,-0.4,-4,0)"
         style="fill:#ff6600;fill-rule:evenodd;stroke:#ff6600;stroke-width:1pt;marker-start:none"
         d="M 0,0 5,-5 -12.5,0 5,5 0,0 z"
         id="path5877-8"
         inkscape:connector-curvature="0" />
    </marker>
    <marker
       style="overflow:visible"
       id="marker6388"
       refX="0"
       refY="0"
       orient="auto"
       inkscape:stockid="Arrow1MendB">
      <path
         transform="matrix(-0.4,0,0,-0.4,-4,0)"
         style="fill:#ff6600;fill-rule:evenodd;stroke:#ff6600;stroke-width:1pt;marker-start:none"
         d="M 0,0 5,-5 -12.5,0 5,5 0,0 z"
         id="path6390"
         inkscape:connector-curvature="0" />
    </marker>
    <marker
       style="overflow:visible"
       id="marker6392"
       refX="0"
       refY="0"
       orient="auto"
       inkscape:stockid="Arrow1MendB">
      <path
         transform="matrix(-0.4,0,0,-0.4,-4,0)"
         style="fill:#ff6600;fill-rule:evenodd;stroke:#ff6600;stroke-width:1pt;marker-start:none"
         d="M 0,0 5,-5 -12.5,0 5,5 0,0 z"
         id="path6394"
         inkscape:connector-curvature="0" />
    </marker>
    <marker
       style="overflow:visible"
       id="Arrow1Mendi-7"
       refX="0"
       refY="0"
       orient="auto"
       inkscape:stockid="Arrow1Mendi">
      <path
         transform="matrix(-0.4,0,0,-0.4,-4,0)"
         style="fill:#ff6600;fill-rule:evenodd;stroke:#ff6600;stroke-width:1pt;marker-start:none"
         d="M 0,0 5,-5 -12.5,0 5,5 0,0 z"
         id="path5868-5"
         inkscape:connector-curvature="0" />
    </marker>
    <marker
       style="overflow:visible"
       id="Arrow1MendS-5"
       refX="0"
       refY="0"
       orient="auto"
       inkscape:stockid="Arrow1MendS">
      <path
         transform="matrix(-0.4,0,0,-0.4,-4,0)"
         style="fill:#ff6600;fill-rule:evenodd;stroke:#ff6600;stroke-width:1pt;marker-start:none"
         d="M 0,0 5,-5 -12.5,0 5,5 0,0 z"
         id="path5871-4"
         inkscape:connector-curvature="0" />
    </marker>
    <marker
       style="overflow:visible"
       id="Arrow1Mendv-8"
       refX="0"
       refY="0"
       orient="auto"
       inkscape:stockid="Arrow1Mendv">
      <path
         transform="matrix(-0.4,0,0,-0.4,-4,0)"
         style="fill:#ff6600;fill-rule:evenodd;stroke:#ff6600;stroke-width:1pt;marker-start:none"
         d="M 0,0 5,-5 -12.5,0 5,5 0,0 z"
         id="path5874-5"
         inkscape:connector-curvature="0" />
    </marker>
    <marker
       style="overflow:visible"
       id="marker6402"
       refX="0"
       refY="0"
       orient="auto"
       inkscape:stockid="Arrow1MendO">
      <path
         transform="matrix(-0.4,0,0,-0.4,-4,0)"
         style="fill:#ff6600;fill-rule:evenodd;stroke:#ff6600;stroke-width:1pt;marker-start:none"
         d="M 0,0 5,-5 -12.5,0 5,5 0,0 z"
         id="path6404"
         inkscape:connector-curvature="0" />
    </marker>
    <marker
       style="overflow:visible"
       id="Arrow1MendM-7"
       refX="0"
       refY="0"
       orient="auto"
       inkscape:stockid="Arrow1MendM">
      <path
         transform="matrix(-0.4,0,0,-0.4,-4,0)"
         style="fill:#ff6600;fill-rule:evenodd;stroke:#ff6600;stroke-width:1pt;marker-start:none"
         d="M 0,0 5,-5 -12.5,0 5,5 0,0 z"
         id="path5913-3"
         inkscape:connector-curvature="0" />
    </marker>
    <marker
       style="overflow:visible"
       id="Arrow1MendY-3"
       refX="0"
       refY="0"
       orient="auto"
       inkscape:stockid="Arrow1MendY">
      <path
         transform="matrix(-0.4,0,0,-0.4,-4,0)"
         style="fill:#ff6600;fill-rule:evenodd;stroke:#ff6600;stroke-width:1pt;marker-start:none"
         d="M 0,0 5,-5 -12.5,0 5,5 0,0 z"
         id="path5865-0"
         inkscape:connector-curvature="0" />
    </marker>
    <marker
       style="overflow:visible"
       id="Arrow1Mendf-1"
       refX="0"
       refY="0"
       orient="auto"
       inkscape:stockid="Arrow1Mendf">
      <path
         transform="matrix(-0.4,0,0,-0.4,-4,0)"
         style="fill:#ff6600;fill-rule:evenodd;stroke:#ff6600;stroke-width:1pt;marker-start:none"
         d="M 0,0 5,-5 -12.5,0 5,5 0,0 z"
         id="path5883-2"
         inkscape:connector-curvature="0" />
    </marker>
    <marker
       style="overflow:visible"
       id="Arrow1Mendq7-1"
       refX="0"
       refY="0"
       orient="auto"
       inkscape:stockid="Arrow1Mendq7">
      <path
         transform="matrix(-0.4,0,0,-0.4,-4,0)"
         style="fill:#ff6600;fill-rule:evenodd;stroke:#ff6600;stroke-width:1pt;marker-start:none"
         d="M 0,0 5,-5 -12.5,0 5,5 0,0 z"
         id="path5901-1"
         inkscape:connector-curvature="0" />
    </marker>
    <marker
       style="overflow:visible"
       id="Arrow1Mendu-8"
       refX="0"
       refY="0"
       orient="auto"
       inkscape:stockid="Arrow1Mendu">
      <path
         transform="matrix(-0.4,0,0,-0.4,-4,0)"
         style="fill:#ff6600;fill-rule:evenodd;stroke:#ff6600;stroke-width:1pt;marker-start:none"
         d="M 0,0 5,-5 -12.5,0 5,5 0,0 z"
         id="path5922-2"
         inkscape:connector-curvature="0" />
    </marker>
    <marker
       style="overflow:visible"
       id="Arrow1MendF-3"
       refX="0"
       refY="0"
       orient="auto"
       inkscape:stockid="Arrow1MendF">
      <path
         transform="matrix(-0.4,0,0,-0.4,-4,0)"
         style="fill:#ff6600;fill-rule:evenodd;stroke:#ff6600;stroke-width:1pt;marker-start:none"
         d="M 0,0 5,-5 -12.5,0 5,5 0,0 z"
         id="path5916-8"
         inkscape:connector-curvature="0" />
    </marker>
    <marker
       style="overflow:visible"
       id="Arrow1MendYk-4"
       refX="0"
       refY="0"
       orient="auto"
       inkscape:stockid="Arrow1MendYk">
      <path
         transform="matrix(-0.4,0,0,-0.4,-4,0)"
         style="fill:#ff6600;fill-rule:evenodd;stroke:#ff6600;stroke-width:1pt;marker-start:none"
         d="M 0,0 5,-5 -12.5,0 5,5 0,0 z"
         id="path5892-1"
         inkscape:connector-curvature="0" />
    </marker>
    <marker
       style="overflow:visible"
       id="Arrow1MendC-3"
       refX="0"
       refY="0"
       orient="auto"
       inkscape:stockid="Arrow1MendC">
      <path
         transform="matrix(-0.4,0,0,-0.4,-4,0)"
         style="fill:#ff6600;fill-rule:evenodd;stroke:#ff6600;stroke-width:1pt;marker-start:none"
         d="M 0,0 5,-5 -12.5,0 5,5 0,0 z"
         id="path5937-0"
         inkscape:connector-curvature="0" />
    </marker>
    <marker
       style="overflow:visible"
       id="Arrow1Mendna-0"
       refX="0"
       refY="0"
       orient="auto"
       inkscape:stockid="Arrow1Mendna">
      <path
         transform="matrix(-0.4,0,0,-0.4,-4,0)"
         style="fill:#ff6600;fill-rule:evenodd;stroke:#ff6600;stroke-width:1pt;marker-start:none"
         d="M 0,0 5,-5 -12.5,0 5,5 0,0 z"
         id="path5934-9"
         inkscape:connector-curvature="0" />
    </marker>
    <marker
       style="overflow:visible"
       id="Arrow1Mendn-4"
       refX="0"
       refY="0"
       orient="auto"
       inkscape:stockid="Arrow1Mendn">
      <path
         transform="matrix(-0.4,0,0,-0.4,-4,0)"
         style="fill:#ff6600;fill-rule:evenodd;stroke:#ff6600;stroke-width:1pt;marker-start:none"
         d="M 0,0 5,-5 -12.5,0 5,5 0,0 z"
         id="path5931-1"
         inkscape:connector-curvature="0" />
    </marker>
    <marker
       style="overflow:visible"
       id="Arrow1Mend6-0"
       refX="0"
       refY="0"
       orient="auto"
       inkscape:stockid="Arrow1Mend6">
      <path
         transform="matrix(-0.4,0,0,-0.4,-4,0)"
         style="fill:#ff6600;fill-rule:evenodd;stroke:#ff6600;stroke-width:1pt;marker-start:none"
         d="M 0,0 5,-5 -12.5,0 5,5 0,0 z"
         id="path5886-8"
         inkscape:connector-curvature="0" />
    </marker>
    <marker
       style="overflow:visible"
       id="marker6428"
       refX="0"
       refY="0"
       orient="auto"
       inkscape:stockid="Arrow1MendB">
      <path
         transform="matrix(-0.4,0,0,-0.4,-4,0)"
         style="fill:#ff6600;fill-rule:evenodd;stroke:#ff6600;stroke-width:1pt;marker-start:none"
         d="M 0,0 5,-5 -12.5,0 5,5 0,0 z"
         id="path6430"
         inkscape:connector-curvature="0" />
    </marker>
    <marker
       style="overflow:visible"
       id="Arrow1MendYt-6"
       refX="0"
       refY="0"
       orient="auto"
       inkscape:stockid="Arrow1MendYt">
      <path
         transform="matrix(-0.4,0,0,-0.4,-4,0)"
         style="fill:#ff6600;fill-rule:evenodd;stroke:#ff6600;stroke-width:1pt;marker-start:none"
         d="M 0,0 5,-5 -12.5,0 5,5 0,0 z"
         id="path5889-4"
         inkscape:connector-curvature="0" />
    </marker>
    <marker
       style="overflow:visible"
       id="Arrow1Mend7Y-7"
       refX="0"
       refY="0"
       orient="auto"
       inkscape:stockid="Arrow1Mend7Y">
      <path
         transform="matrix(-0.4,0,0,-0.4,-4,0)"
         style="fill:#ff6600;fill-rule:evenodd;stroke:#ff6600;stroke-width:1pt;marker-start:none"
         d="M 0,0 5,-5 -12.5,0 5,5 0,0 z"
         id="path5910-3"
         inkscape:connector-curvature="0" />
    </marker>
    <marker
       style="overflow:visible"
       id="Arrow1Mend7-1"
       refX="0"
       refY="0"
       orient="auto"
       inkscape:stockid="Arrow1Mend7">
      <path
         transform="matrix(-0.4,0,0,-0.4,-4,0)"
         style="fill:#ff6600;fill-rule:evenodd;stroke:#ff6600;stroke-width:1pt;marker-start:none"
         d="M 0,0 5,-5 -12.5,0 5,5 0,0 z"
         id="path5895-4"
         inkscape:connector-curvature="0" />
    </marker>
    <marker
       style="overflow:visible"
       id="Arrow1Mend9-9"
       refX="0"
       refY="0"
       orient="auto"
       inkscape:stockid="Arrow1Mend9">
      <path
         transform="matrix(-0.4,0,0,-0.4,-4,0)"
         style="fill:#ff6600;fill-rule:evenodd;stroke:#ff6600;stroke-width:1pt;marker-start:none"
         d="M 0,0 5,-5 -12.5,0 5,5 0,0 z"
         id="path5898-0"
         inkscape:connector-curvature="0" />
    </marker>
    <marker
       style="overflow:visible"
       id="Arrow1Mendq-9"
       refX="0"
       refY="0"
       orient="auto"
       inkscape:stockid="Arrow1Mendq">
      <path
         transform="matrix(-0.4,0,0,-0.4,-4,0)"
         style="fill:#ff6600;fill-rule:evenodd;stroke:#ff6600;stroke-width:1pt;marker-start:none"
         d="M 0,0 5,-5 -12.5,0 5,5 0,0 z"
         id="path5880-6"
         inkscape:connector-curvature="0" />
    </marker>
    <marker
       style="overflow:visible"
       id="Arrow1MendCj-3"
       refX="0"
       refY="0"
       orient="auto"
       inkscape:stockid="Arrow1MendCj">
      <path
         transform="matrix(-0.4,0,0,-0.4,-4,0)"
         style="fill:#ff6600;fill-rule:evenodd;stroke:#ff6600;stroke-width:1pt;marker-start:none"
         d="M 0,0 5,-5 -12.5,0 5,5 0,0 z"
         id="path5940-2"
         inkscape:connector-curvature="0" />
    </marker>
    <marker
       style="overflow:visible"
       id="Arrow1Mendy-7"
       refX="0"
       refY="0"
       orient="auto"
       inkscape:stockid="Arrow1Mendy">
      <path
         transform="matrix(-0.4,0,0,-0.4,-4,0)"
         style="fill:#ff6600;fill-rule:evenodd;stroke:#ff6600;stroke-width:1pt;marker-start:none"
         d="M 0,0 5,-5 -12.5,0 5,5 0,0 z"
         id="path5925-4"
         inkscape:connector-curvature="0" />
    </marker>
    <marker
       style="overflow:visible"
       id="Arrow1Mende-6"
       refX="0"
       refY="0"
       orient="auto"
       inkscape:stockid="Arrow1Mende">
      <path
         transform="matrix(-0.4,0,0,-0.4,-4,0)"
         style="fill:#ff6600;fill-rule:evenodd;stroke:#ff6600;stroke-width:1pt;marker-start:none"
         d="M 0,0 5,-5 -12.5,0 5,5 0,0 z"
         id="path5928-8"
         inkscape:connector-curvature="0" />
    </marker>
    <marker
       style="overflow:visible"
       id="Arrow1MendG-7"
       refX="0"
       refY="0"
       orient="auto"
       inkscape:stockid="Arrow1MendG">
      <path
         transform="matrix(-0.4,0,0,-0.4,-4,0)"
         style="fill:#ff6600;fill-rule:evenodd;stroke:#ff6600;stroke-width:1pt;marker-start:none"
         d="M 0,0 5,-5 -12.5,0 5,5 0,0 z"
         id="path5904-5"
         inkscape:connector-curvature="0" />
    </marker>
    <marker
       style="overflow:visible"
       id="Arrow1MendfT-0"
       refX="0"
       refY="0"
       orient="auto"
       inkscape:stockid="Arrow1MendfT">
      <path
         transform="matrix(-0.4,0,0,-0.4,-4,0)"
         style="fill:#ff6600;fill-rule:evenodd;stroke:#ff6600;stroke-width:1pt;marker-start:none"
         d="M 0,0 5,-5 -12.5,0 5,5 0,0 z"
         id="path5907-2"
         inkscape:connector-curvature="0" />
    </marker>
    <marker
       style="overflow:visible"
       id="marker6452"
       refX="0"
       refY="0"
       orient="auto"
       inkscape:stockid="Arrow1MendL">
      <path
         transform="matrix(-0.4,0,0,-0.4,-4,0)"
         style="fill:#ff6600;fill-rule:evenodd;stroke:#ff6600;stroke-width:1pt;marker-start:none"
         d="M 0,0 5,-5 -12.5,0 5,5 0,0 z"
         id="path6454"
         inkscape:connector-curvature="0" />
    </marker>
    <marker
       style="overflow:visible"
       id="Arrow1Lstart-5"
       refX="0"
       refY="0"
       orient="auto"
       inkscape:stockid="Arrow1Lstart">
      <path
         transform="matrix(0.8,0,0,0.8,10,0)"
         style="fill-rule:evenodd;stroke:#000000;stroke-width:1pt;marker-start:none"
         d="M 0,0 5,-5 -12.5,0 5,5 0,0 z"
         id="path4797-7"
         inkscape:connector-curvature="0" />
    </marker>
    <marker
       style="overflow:visible"
       id="Arrow1MendiN-4"
       refX="0"
       refY="0"
       orient="auto"
       inkscape:stockid="Arrow1MendiN">
      <path
         transform="matrix(-0.4,0,0,-0.4,-4,0)"
         style="fill:#ff6600;fill-rule:evenodd;stroke:#ff6600;stroke-width:1pt;marker-start:none"
         d="M 0,0 5,-5 -12.5,0 5,5 0,0 z"
         id="path5943-0"
         inkscape:connector-curvature="0" />
    </marker>
  </defs>
  <metadata
     id="metadata7">
    <rdf:RDF>
      <cc:Work
         rdf:about="">
        <dc:format>image/svg+xml</dc:format>
        <dc:type
           rdf:resource="http://purl.org/dc/dcmitype/StillImage" />
        <dc:title></dc:title>
      </cc:Work>
    </rdf:RDF>
  </metadata>
  <g
     id="layer1"
     inkscape:groupmode="layer"
     inkscape:label="Layer 1"
     transform="translate(0,-602.35975)">
    <rect
       style="fill:#ebebeb;fill-opacity:1;stroke:#000000;stroke-width:0.54111737;stroke-miterlimit:4;stroke-opacity:1;stroke-dasharray:none;stroke-dashoffset:0"
       id="rect6356-9"
       width="425.52197"
       height="405.24332"
       x="17.076111"
       y="617.12427" />
    <path
       sodipodi:nodetypes="czzzzzzzzzzzzzzzzzzzzzzzzzzzszzzzzzzzzzzzzzzzzzzzc"
       inkscape:connector-curvature="0"
       id="path2997-6"
       d="m 146.54602,698.03125 c 17.73186,-6.63994 38.57383,-19.76075 55.48156,-15.45277 16.90774,4.30796 32.6342,11.17919 42.26939,21.69451 9.6352,10.51532 4.42171,10.68486 11.66081,8.76308 7.23911,-1.92179 25.6299,-0.8097 31.15623,-5.10576 5.52636,-4.29607 2.83625,-10.11691 9.60447,-19.98329 6.76824,-9.86637 13.5303,-32.99001 22.83509,-25.75816 9.30481,7.23185 -16.87605,23.292 -18.32042,38.60609 -1.44436,15.31411 30.04722,-8.28227 35.52196,-14.69686 5.47473,-6.41461 27.92652,-21.36772 21.68667,-10.87832 -6.23983,10.48942 -15.93301,20.55475 3.17555,16.43109 19.10858,-4.12366 51.97772,-18.61033 60.83374,0.45394 8.85603,19.06429 -34.49242,18.05947 -44.71094,19.81974 -10.21849,1.76024 -10.41764,-3.80104 -13.90024,-3.92085 -3.48261,-0.11979 -2.37919,-0.45014 -10.15164,0 -7.77244,0.45014 -12.31679,7.4161 -27.40761,18.49731 -15.09082,11.08124 -37.42061,-8.4225 -52.65068,0.33259 -15.23007,8.75512 -26.97498,-6.22517 -30.29591,19.2677 -3.32092,25.49287 -49.31927,9.25275 -42.50848,29.78512 6.81076,20.5324 13.08785,28.83946 24.71249,46.41674 11.62463,17.57727 32.0327,39.73439 44.63007,56.84304 12.59736,17.10866 27.07492,24.15932 39.6689,37.72949 12.59398,13.57018 33.06592,31.22096 39.44308,38.62396 6.37715,7.403 -2.20411,-2.40082 1.89667,2.43567 4.10078,4.8365 17.06383,11.93255 27.72185,20.65608 10.65803,8.72352 53.82477,13.32548 43.34616,24.66451 -10.47862,11.339 -19.15133,-5.73654 -36.29161,-11.26509 -17.14027,-5.52857 -51.86936,-33.95813 -57.28435,-37.20506 -5.41496,-3.24693 -14.77375,-4.37876 -20.25661,-5.61157 -12.4087,-2.7901 -20.77304,-3.54782 -31.02878,-12.38453 -10.25575,-8.83672 -32.76721,-19.24603 -45.78712,-32.817 -13.01993,-13.57097 -23.12832,-37.5532 -36.40965,-44.21677 -13.28133,-6.66358 -18.35872,-23.50483 -8.32751,-22.66427 10.03121,0.84054 17.96903,25.90451 31.38253,36.25986 13.41351,10.35536 8.6695,17.43337 24.55897,26.74134 15.88947,9.30799 41.75558,42.49188 60.70257,40.48263 18.94698,-2.00927 -11.47744,-18.37191 -21.37933,-28.7297 -9.90189,-10.35779 -26.67383,-25.57714 -38.85322,-40.33429 -12.17937,-14.75717 -22.15319,-31.45676 -33.82492,-47.83964 -11.67174,-16.38284 -21.15442,-39.5019 -25.49809,-54.32587 -4.34369,-14.82393 -28.63518,-12.21606 -29.13801,-27.44983 -0.50282,-15.23377 -8.59239,-12.26722 -20.50919,-26.171 -11.91679,-13.90376 -51.074127,-9.4869 -64.597613,-0.92099 -13.52347,8.56593 -42.454995,8.51029 -25.896965,-4.6794 16.558031,-13.1897 55.173893,-1.75885 55.711257,-17.60541 0.537381,-15.84656 -56.489875,3.37147 -47.769755,-12.23852 8.72012,-15.60999 36.285408,9.64473 49.656146,1.54282 13.37073,-8.10191 -36.019102,-30.052 -11.874593,-32.60474 24.144513,-2.55274 30.662613,31.4555 37.949903,45.30064 7.28731,13.84513 10.45906,5.02621 18.71725,4.03662"
       style="fill:#dcc1c1;fill-opacity:1;stroke:#000000;stroke-width:0.48987341px;stroke-linecap:butt;stroke-linejoin:miter;stroke-opacity:1" />
  </g>
</svg>
