<?xml version="1.0" encoding="UTF-8" standalone="no"?>
<!-- Created with Inkscape (http://www.inkscape.org/) -->

<svg
   xmlns:dc="http://purl.org/dc/elements/1.1/"
   xmlns:cc="http://creativecommons.org/ns#"
   xmlns:rdf="http://www.w3.org/1999/02/22-rdf-syntax-ns#"
   xmlns:svg="http://www.w3.org/2000/svg"
   xmlns="http://www.w3.org/2000/svg"
   xmlns:sodipodi="http://sodipodi.sourceforge.net/DTD/sodipodi-0.dtd"
   xmlns:inkscape="http://www.inkscape.org/namespaces/inkscape"
   width="208.41992"
   height="169.35416"
   id="svg2"
   version="1.1"
   inkscape:version="0.48.2 r9819"
   sodipodi:docname="morphology_overview_cylinderdetails.svg">
  <defs
     id="defs4">
    <marker
       style="overflow:visible"
       id="Arrow1MendL"
       refX="0"
       refY="0"
       orient="auto"
       inkscape:stockid="Arrow1MendL">
      <path
         transform="matrix(-0.4,0,0,-0.4,-4,0)"
         style="fill:#ff6600;fill-rule:evenodd;stroke:#ff6600;stroke-width:1pt;marker-start:none"
         d="M 0,0 5,-5 -12.5,0 5,5 0,0 z"
         id="path5919"
         inkscape:connector-curvature="0" />
    </marker>
    <marker
       style="overflow:visible"
       id="Arrow1MendO"
       refX="0"
       refY="0"
       orient="auto"
       inkscape:stockid="Arrow1MendO">
      <path
         transform="matrix(-0.4,0,0,-0.4,-4,0)"
         style="fill:#ff6600;fill-rule:evenodd;stroke:#ff6600;stroke-width:1pt;marker-start:none"
         d="M 0,0 5,-5 -12.5,0 5,5 0,0 z"
         id="path5946"
         inkscape:connector-curvature="0" />
    </marker>
    <marker
       style="overflow:visible"
       id="Arrow1MendB"
       refX="0"
       refY="0"
       orient="auto"
       inkscape:stockid="Arrow1MendB">
      <path
         transform="matrix(-0.4,0,0,-0.4,-4,0)"
         style="fill:#ff6600;fill-rule:evenodd;stroke:#ff6600;stroke-width:1pt;marker-start:none"
         d="M 0,0 5,-5 -12.5,0 5,5 0,0 z"
         id="path5877"
         inkscape:connector-curvature="0" />
    </marker>
    <marker
       style="overflow:visible"
       id="marker13273"
       refX="0"
       refY="0"
       orient="auto"
       inkscape:stockid="Arrow1MendB">
      <path
         transform="matrix(-0.4,0,0,-0.4,-4,0)"
         style="fill:#ff6600;fill-rule:evenodd;stroke:#ff6600;stroke-width:1pt;marker-start:none"
         d="M 0,0 5,-5 -12.5,0 5,5 0,0 z"
         id="path13275"
         inkscape:connector-curvature="0" />
    </marker>
    <marker
       style="overflow:visible"
       id="marker13277"
       refX="0"
       refY="0"
       orient="auto"
       inkscape:stockid="Arrow1MendB">
      <path
         transform="matrix(-0.4,0,0,-0.4,-4,0)"
         style="fill:#ff6600;fill-rule:evenodd;stroke:#ff6600;stroke-width:1pt;marker-start:none"
         d="M 0,0 5,-5 -12.5,0 5,5 0,0 z"
         id="path13279"
         inkscape:connector-curvature="0" />
    </marker>
    <marker
       style="overflow:visible"
       id="Arrow1Mendi"
       refX="0"
       refY="0"
       orient="auto"
       inkscape:stockid="Arrow1Mendi">
      <path
         transform="matrix(-0.4,0,0,-0.4,-4,0)"
         style="fill:#ff6600;fill-rule:evenodd;stroke:#ff6600;stroke-width:1pt;marker-start:none"
         d="M 0,0 5,-5 -12.5,0 5,5 0,0 z"
         id="path5868"
         inkscape:connector-curvature="0" />
    </marker>
    <marker
       style="overflow:visible"
       id="Arrow1MendS"
       refX="0"
       refY="0"
       orient="auto"
       inkscape:stockid="Arrow1MendS">
      <path
         transform="matrix(-0.4,0,0,-0.4,-4,0)"
         style="fill:#ff6600;fill-rule:evenodd;stroke:#ff6600;stroke-width:1pt;marker-start:none"
         d="M 0,0 5,-5 -12.5,0 5,5 0,0 z"
         id="path5871"
         inkscape:connector-curvature="0" />
    </marker>
    <marker
       style="overflow:visible"
       id="Arrow1Mendv"
       refX="0"
       refY="0"
       orient="auto"
       inkscape:stockid="Arrow1Mendv">
      <path
         transform="matrix(-0.4,0,0,-0.4,-4,0)"
         style="fill:#ff6600;fill-rule:evenodd;stroke:#ff6600;stroke-width:1pt;marker-start:none"
         d="M 0,0 5,-5 -12.5,0 5,5 0,0 z"
         id="path5874"
         inkscape:connector-curvature="0" />
    </marker>
    <marker
       style="overflow:visible"
       id="marker13287"
       refX="0"
       refY="0"
       orient="auto"
       inkscape:stockid="Arrow1MendO">
      <path
         transform="matrix(-0.4,0,0,-0.4,-4,0)"
         style="fill:#ff6600;fill-rule:evenodd;stroke:#ff6600;stroke-width:1pt;marker-start:none"
         d="M 0,0 5,-5 -12.5,0 5,5 0,0 z"
         id="path13289"
         inkscape:connector-curvature="0" />
    </marker>
    <marker
       style="overflow:visible"
       id="Arrow1MendM"
       refX="0"
       refY="0"
       orient="auto"
       inkscape:stockid="Arrow1MendM">
      <path
         transform="matrix(-0.4,0,0,-0.4,-4,0)"
         style="fill:#ff6600;fill-rule:evenodd;stroke:#ff6600;stroke-width:1pt;marker-start:none"
         d="M 0,0 5,-5 -12.5,0 5,5 0,0 z"
         id="path5913"
         inkscape:connector-curvature="0" />
    </marker>
    <marker
       style="overflow:visible"
       id="Arrow1MendY"
       refX="0"
       refY="0"
       orient="auto"
       inkscape:stockid="Arrow1MendY">
      <path
         transform="matrix(-0.4,0,0,-0.4,-4,0)"
         style="fill:#ff6600;fill-rule:evenodd;stroke:#ff6600;stroke-width:1pt;marker-start:none"
         d="M 0,0 5,-5 -12.5,0 5,5 0,0 z"
         id="path5865"
         inkscape:connector-curvature="0" />
    </marker>
    <marker
       style="overflow:visible"
       id="Arrow1Mendf"
       refX="0"
       refY="0"
       orient="auto"
       inkscape:stockid="Arrow1Mendf">
      <path
         transform="matrix(-0.4,0,0,-0.4,-4,0)"
         style="fill:#ff6600;fill-rule:evenodd;stroke:#ff6600;stroke-width:1pt;marker-start:none"
         d="M 0,0 5,-5 -12.5,0 5,5 0,0 z"
         id="path5883"
         inkscape:connector-curvature="0" />
    </marker>
    <marker
       style="overflow:visible"
       id="Arrow1Mendq7"
       refX="0"
       refY="0"
       orient="auto"
       inkscape:stockid="Arrow1Mendq7">
      <path
         transform="matrix(-0.4,0,0,-0.4,-4,0)"
         style="fill:#ff6600;fill-rule:evenodd;stroke:#ff6600;stroke-width:1pt;marker-start:none"
         d="M 0,0 5,-5 -12.5,0 5,5 0,0 z"
         id="path5901"
         inkscape:connector-curvature="0" />
    </marker>
    <marker
       style="overflow:visible"
       id="Arrow1Mendu"
       refX="0"
       refY="0"
       orient="auto"
       inkscape:stockid="Arrow1Mendu">
      <path
         transform="matrix(-0.4,0,0,-0.4,-4,0)"
         style="fill:#ff6600;fill-rule:evenodd;stroke:#ff6600;stroke-width:1pt;marker-start:none"
         d="M 0,0 5,-5 -12.5,0 5,5 0,0 z"
         id="path5922"
         inkscape:connector-curvature="0" />
    </marker>
    <marker
       style="overflow:visible"
       id="Arrow1MendF"
       refX="0"
       refY="0"
       orient="auto"
       inkscape:stockid="Arrow1MendF">
      <path
         transform="matrix(-0.4,0,0,-0.4,-4,0)"
         style="fill:#ff6600;fill-rule:evenodd;stroke:#ff6600;stroke-width:1pt;marker-start:none"
         d="M 0,0 5,-5 -12.5,0 5,5 0,0 z"
         id="path5916"
         inkscape:connector-curvature="0" />
    </marker>
    <marker
       style="overflow:visible"
       id="Arrow1MendYk"
       refX="0"
       refY="0"
       orient="auto"
       inkscape:stockid="Arrow1MendYk">
      <path
         transform="matrix(-0.4,0,0,-0.4,-4,0)"
         style="fill:#ff6600;fill-rule:evenodd;stroke:#ff6600;stroke-width:1pt;marker-start:none"
         d="M 0,0 5,-5 -12.5,0 5,5 0,0 z"
         id="path5892"
         inkscape:connector-curvature="0" />
    </marker>
    <marker
       style="overflow:visible"
       id="Arrow1MendC"
       refX="0"
       refY="0"
       orient="auto"
       inkscape:stockid="Arrow1MendC">
      <path
         transform="matrix(-0.4,0,0,-0.4,-4,0)"
         style="fill:#ff6600;fill-rule:evenodd;stroke:#ff6600;stroke-width:1pt;marker-start:none"
         d="M 0,0 5,-5 -12.5,0 5,5 0,0 z"
         id="path5937"
         inkscape:connector-curvature="0" />
    </marker>
    <marker
       style="overflow:visible"
       id="Arrow1Mendna"
       refX="0"
       refY="0"
       orient="auto"
       inkscape:stockid="Arrow1Mendna">
      <path
         transform="matrix(-0.4,0,0,-0.4,-4,0)"
         style="fill:#ff6600;fill-rule:evenodd;stroke:#ff6600;stroke-width:1pt;marker-start:none"
         d="M 0,0 5,-5 -12.5,0 5,5 0,0 z"
         id="path5934"
         inkscape:connector-curvature="0" />
    </marker>
    <marker
       style="overflow:visible"
       id="Arrow1Mendn"
       refX="0"
       refY="0"
       orient="auto"
       inkscape:stockid="Arrow1Mendn">
      <path
         transform="matrix(-0.4,0,0,-0.4,-4,0)"
         style="fill:#ff6600;fill-rule:evenodd;stroke:#ff6600;stroke-width:1pt;marker-start:none"
         d="M 0,0 5,-5 -12.5,0 5,5 0,0 z"
         id="path5931"
         inkscape:connector-curvature="0" />
    </marker>
    <marker
       style="overflow:visible"
       id="Arrow1Mend6"
       refX="0"
       refY="0"
       orient="auto"
       inkscape:stockid="Arrow1Mend6">
      <path
         transform="matrix(-0.4,0,0,-0.4,-4,0)"
         style="fill:#ff6600;fill-rule:evenodd;stroke:#ff6600;stroke-width:1pt;marker-start:none"
         d="M 0,0 5,-5 -12.5,0 5,5 0,0 z"
         id="path5886"
         inkscape:connector-curvature="0" />
    </marker>
    <marker
       style="overflow:visible"
       id="marker13313"
       refX="0"
       refY="0"
       orient="auto"
       inkscape:stockid="Arrow1MendB">
      <path
         transform="matrix(-0.4,0,0,-0.4,-4,0)"
         style="fill:#ff6600;fill-rule:evenodd;stroke:#ff6600;stroke-width:1pt;marker-start:none"
         d="M 0,0 5,-5 -12.5,0 5,5 0,0 z"
         id="path13315"
         inkscape:connector-curvature="0" />
    </marker>
    <marker
       style="overflow:visible"
       id="Arrow1MendYt"
       refX="0"
       refY="0"
       orient="auto"
       inkscape:stockid="Arrow1MendYt">
      <path
         transform="matrix(-0.4,0,0,-0.4,-4,0)"
         style="fill:#ff6600;fill-rule:evenodd;stroke:#ff6600;stroke-width:1pt;marker-start:none"
         d="M 0,0 5,-5 -12.5,0 5,5 0,0 z"
         id="path5889"
         inkscape:connector-curvature="0" />
    </marker>
    <marker
       style="overflow:visible"
       id="Arrow1Mend7Y"
       refX="0"
       refY="0"
       orient="auto"
       inkscape:stockid="Arrow1Mend7Y">
      <path
         transform="matrix(-0.4,0,0,-0.4,-4,0)"
         style="fill:#ff6600;fill-rule:evenodd;stroke:#ff6600;stroke-width:1pt;marker-start:none"
         d="M 0,0 5,-5 -12.5,0 5,5 0,0 z"
         id="path5910"
         inkscape:connector-curvature="0" />
    </marker>
    <marker
       style="overflow:visible"
       id="Arrow1Mend7"
       refX="0"
       refY="0"
       orient="auto"
       inkscape:stockid="Arrow1Mend7">
      <path
         transform="matrix(-0.4,0,0,-0.4,-4,0)"
         style="fill:#ff6600;fill-rule:evenodd;stroke:#ff6600;stroke-width:1pt;marker-start:none"
         d="M 0,0 5,-5 -12.5,0 5,5 0,0 z"
         id="path5895"
         inkscape:connector-curvature="0" />
    </marker>
    <marker
       style="overflow:visible"
       id="Arrow1Mend9"
       refX="0"
       refY="0"
       orient="auto"
       inkscape:stockid="Arrow1Mend9">
      <path
         transform="matrix(-0.4,0,0,-0.4,-4,0)"
         style="fill:#ff6600;fill-rule:evenodd;stroke:#ff6600;stroke-width:1pt;marker-start:none"
         d="M 0,0 5,-5 -12.5,0 5,5 0,0 z"
         id="path5898"
         inkscape:connector-curvature="0" />
    </marker>
    <marker
       style="overflow:visible"
       id="Arrow1Mendq"
       refX="0"
       refY="0"
       orient="auto"
       inkscape:stockid="Arrow1Mendq">
      <path
         transform="matrix(-0.4,0,0,-0.4,-4,0)"
         style="fill:#ff6600;fill-rule:evenodd;stroke:#ff6600;stroke-width:1pt;marker-start:none"
         d="M 0,0 5,-5 -12.5,0 5,5 0,0 z"
         id="path5880"
         inkscape:connector-curvature="0" />
    </marker>
    <marker
       style="overflow:visible"
       id="Arrow1MendCj"
       refX="0"
       refY="0"
       orient="auto"
       inkscape:stockid="Arrow1MendCj">
      <path
         transform="matrix(-0.4,0,0,-0.4,-4,0)"
         style="fill:#ff6600;fill-rule:evenodd;stroke:#ff6600;stroke-width:1pt;marker-start:none"
         d="M 0,0 5,-5 -12.5,0 5,5 0,0 z"
         id="path5940"
         inkscape:connector-curvature="0" />
    </marker>
    <marker
       style="overflow:visible"
       id="Arrow1Mendy"
       refX="0"
       refY="0"
       orient="auto"
       inkscape:stockid="Arrow1Mendy">
      <path
         transform="matrix(-0.4,0,0,-0.4,-4,0)"
         style="fill:#ff6600;fill-rule:evenodd;stroke:#ff6600;stroke-width:1pt;marker-start:none"
         d="M 0,0 5,-5 -12.5,0 5,5 0,0 z"
         id="path5925"
         inkscape:connector-curvature="0" />
    </marker>
    <marker
       style="overflow:visible"
       id="Arrow1Mende"
       refX="0"
       refY="0"
       orient="auto"
       inkscape:stockid="Arrow1Mende">
      <path
         transform="matrix(-0.4,0,0,-0.4,-4,0)"
         style="fill:#ff6600;fill-rule:evenodd;stroke:#ff6600;stroke-width:1pt;marker-start:none"
         d="M 0,0 5,-5 -12.5,0 5,5 0,0 z"
         id="path5928"
         inkscape:connector-curvature="0" />
    </marker>
    <marker
       style="overflow:visible"
       id="Arrow1MendG"
       refX="0"
       refY="0"
       orient="auto"
       inkscape:stockid="Arrow1MendG">
      <path
         transform="matrix(-0.4,0,0,-0.4,-4,0)"
         style="fill:#ff6600;fill-rule:evenodd;stroke:#ff6600;stroke-width:1pt;marker-start:none"
         d="M 0,0 5,-5 -12.5,0 5,5 0,0 z"
         id="path5904"
         inkscape:connector-curvature="0" />
    </marker>
    <marker
       style="overflow:visible"
       id="Arrow1MendfT"
       refX="0"
       refY="0"
       orient="auto"
       inkscape:stockid="Arrow1MendfT">
      <path
         transform="matrix(-0.4,0,0,-0.4,-4,0)"
         style="fill:#ff6600;fill-rule:evenodd;stroke:#ff6600;stroke-width:1pt;marker-start:none"
         d="M 0,0 5,-5 -12.5,0 5,5 0,0 z"
         id="path5907"
         inkscape:connector-curvature="0" />
    </marker>
    <marker
       style="overflow:visible"
       id="marker13337"
       refX="0"
       refY="0"
       orient="auto"
       inkscape:stockid="Arrow1MendL">
      <path
         transform="matrix(-0.4,0,0,-0.4,-4,0)"
         style="fill:#ff6600;fill-rule:evenodd;stroke:#ff6600;stroke-width:1pt;marker-start:none"
         d="M 0,0 5,-5 -12.5,0 5,5 0,0 z"
         id="path13339"
         inkscape:connector-curvature="0" />
    </marker>
    <marker
       style="overflow:visible"
       id="Arrow1Lstart"
       refX="0"
       refY="0"
       orient="auto"
       inkscape:stockid="Arrow1Lstart">
      <path
         transform="matrix(0.8,0,0,0.8,10,0)"
         style="fill-rule:evenodd;stroke:#000000;stroke-width:1pt;marker-start:none"
         d="M 0,0 5,-5 -12.5,0 5,5 0,0 z"
         id="path4797"
         inkscape:connector-curvature="0" />
    </marker>
    <marker
       style="overflow:visible"
       id="Arrow1MendiN"
       refX="0"
       refY="0"
       orient="auto"
       inkscape:stockid="Arrow1MendiN">
      <path
         transform="matrix(-0.4,0,0,-0.4,-4,0)"
         style="fill:#ff6600;fill-rule:evenodd;stroke:#ff6600;stroke-width:1pt;marker-start:none"
         d="M 0,0 5,-5 -12.5,0 5,5 0,0 z"
         id="path5943"
         inkscape:connector-curvature="0" />
    </marker>
    <marker
       style="overflow:visible"
       id="Arrow1MendYk-0"
       refX="0"
       refY="0"
       orient="auto"
       inkscape:stockid="Arrow1MendYk">
      <path
         transform="matrix(-0.4,0,0,-0.4,-4,0)"
         style="fill:#ff6600;fill-rule:evenodd;stroke:#ff6600;stroke-width:1pt;marker-start:none"
         d="M 0,0 5,-5 -12.5,0 5,5 0,0 z"
         id="path5892-4"
         inkscape:connector-curvature="0" />
    </marker>
    <marker
       style="overflow:visible"
       id="Arrow1MendL-2"
       refX="0"
       refY="0"
       orient="auto"
       inkscape:stockid="Arrow1MendL">
      <path
         transform="matrix(-0.4,0,0,-0.4,-4,0)"
         style="fill:#ff6600;fill-rule:evenodd;stroke:#ff6600;stroke-width:1pt;marker-start:none"
         d="M 0,0 5,-5 -12.5,0 5,5 0,0 z"
         id="path5919-5"
         inkscape:connector-curvature="0" />
    </marker>
    <marker
       style="overflow:visible"
       id="Arrow1MendYk-2"
       refX="0"
       refY="0"
       orient="auto"
       inkscape:stockid="Arrow1MendYk">
      <path
         transform="matrix(-0.4,0,0,-0.4,-4,0)"
         style="fill:#ff6600;fill-rule:evenodd;stroke:#ff6600;stroke-width:1pt;marker-start:none"
         d="M 0,0 5,-5 -12.5,0 5,5 0,0 z"
         id="path5892-8"
         inkscape:connector-curvature="0" />
    </marker>
  </defs>
  <sodipodi:namedview
     id="base"
     pagecolor="#ffffff"
     bordercolor="#666666"
     borderopacity="1.0"
     inkscape:pageopacity="0.0"
     inkscape:pageshadow="2"
     inkscape:zoom="1.979899"
     inkscape:cx="63.943465"
     inkscape:cy="4.3377644"
     inkscape:document-units="px"
     inkscape:current-layer="layer1"
     showgrid="false"
     inkscape:window-width="1680"
     inkscape:window-height="1026"
     inkscape:window-x="1680"
     inkscape:window-y="24"
     inkscape:window-maximized="1"
     units="in"
     fit-margin-top="0"
     fit-margin-left="0"
     fit-margin-right="0"
     fit-margin-bottom="0" />
  <metadata
     id="metadata7">
    <rdf:RDF>
      <cc:Work
         rdf:about="">
        <dc:format>image/svg+xml</dc:format>
        <dc:type
           rdf:resource="http://purl.org/dc/dcmitype/StillImage" />
        <dc:title></dc:title>
      </cc:Work>
    </rdf:RDF>
  </metadata>
  <g
     inkscape:label="Layer 1"
     inkscape:groupmode="layer"
     id="layer1"
     transform="translate(-1.3728529,-608.08204)">
    <rect
       style="fill:#ebebeb;fill-opacity:1;stroke:#000000;stroke-width:0.24449585;stroke-miterlimit:4;stroke-opacity:1;stroke-dasharray:none;stroke-dashoffset:0"
       id="rect6356"
       width="208.17543"
       height="169.10966"
       x="1.4951009"
       y="608.20428" />
    <g
       id="g17160"
       transform="translate(-87.883271,-57.578695)">
      <g
         transform="matrix(1.2570621,-1.0798573,1.0798573,1.2570621,-706.36351,-72.023133)"
         id="g14649">
        <path
           sodipodi:nodetypes="cc"
           inkscape:connector-curvature="0"
           id="path3133-23-6-3-5-44"
           d="M 74.610158,677.00578 43.337634,714.49449"
           style="fill:#008000;stroke:#008000;stroke-width:1.70603359;stroke-linecap:butt;stroke-linejoin:miter;stroke-miterlimit:4;stroke-opacity:1;stroke-dasharray:none" />
        <path
           transform="matrix(0.25433824,0.12020013,0.12020013,-0.25433824,-50.00924,711.47286)"
           d="m 331.42857,213.07646 c 0,3.5504 -2.87817,6.42857 -6.42857,6.42857 -3.5504,0 -6.42857,-2.87817 -6.42857,-6.42857 0,-3.5504 2.87817,-6.42857 6.42857,-6.42857 3.5504,0 6.42857,2.87817 6.42857,6.42857 z"
           sodipodi:ry="6.4285712"
           sodipodi:rx="6.4285712"
           sodipodi:cy="213.07646"
           sodipodi:cx="325"
           id="path4105-75"
           style="fill:#ff0000;fill-opacity:1;stroke:#ff0000;stroke-width:3.4000001;stroke-miterlimit:4;stroke-opacity:1;stroke-dasharray:none;stroke-dashoffset:0"
           sodipodi:type="arc" />
      </g>
      <g
         transform="matrix(1.6571955,0,0,1.6571955,201.27145,-412.13194)"
         id="g14645">
        <g
           transform="translate(-25.296551,-8.838554)"
           id="g17127">
          <path
             style="fill:#008000;stroke:#008000;stroke-width:1.70603359;stroke-linecap:butt;stroke-linejoin:miter;stroke-miterlimit:4;stroke-opacity:1;stroke-dasharray:none"
             d="m 51.876703,693.31536 0,23.61475"
             id="path3133-23-6-3-5"
             inkscape:connector-curvature="0"
             sodipodi:nodetypes="cc" />
          <path
             sodipodi:type="arc"
             style="fill:#ff0000;fill-opacity:1;stroke:#ff0000;stroke-width:3.4000001;stroke-miterlimit:4;stroke-opacity:1;stroke-dasharray:none;stroke-dashoffset:0"
             id="path4105-2"
             sodipodi:cx="325"
             sodipodi:cy="213.07646"
             sodipodi:rx="6.4285712"
             sodipodi:ry="6.4285712"
             d="m 331.42857,213.07646 c 0,3.5504 -2.87817,6.42857 -6.42857,6.42857 -3.5504,0 -6.42857,-2.87817 -6.42857,-6.42857 0,-3.5504 2.87817,-6.42857 6.42857,-6.42857 3.5504,0 6.42857,2.87817 6.42857,6.42857 z"
             transform="matrix(0.25433824,0.12020013,0.12020013,-0.25433824,-56.395043,720.25119)" />
        </g>
      </g>
      <text
         transform="scale(1.0006824,0.99931807)"
         sodipodi:linespacing="125%"
         id="text15373-1-20"
         y="690.88391"
         x="107.77705"
         style="font-size:6px;font-style:normal;font-variant:normal;font-weight:normal;font-stretch:normal;text-align:start;line-height:125%;letter-spacing:0px;word-spacing:0px;writing-mode:lr-tb;text-anchor:start;fill:#000000;fill-opacity:1;stroke:none;font-family:Sans;-inkscape-font-specification:Sans"
         xml:space="preserve"><tspan
           style="font-size:6px;font-style:normal;font-variant:normal;font-weight:normal;font-stretch:normal;text-align:start;line-height:125%;writing-mode:lr-tb;text-anchor:start;font-family:Sans;-inkscape-font-specification:Sans"
           y="690.88391"
           x="107.77705"
           id="tspan15375-5-1"
           sodipodi:role="line">N2 (x,y,z,r)</tspan></text>
      <text
         sodipodi:linespacing="125%"
         id="text16602-3"
         y="696.94244"
         x="185.82042"
         style="font-size:11px;font-style:normal;font-variant:normal;font-weight:bold;font-stretch:normal;text-align:start;line-height:125%;letter-spacing:0px;word-spacing:0px;writing-mode:lr-tb;text-anchor:start;fill:#000000;fill-opacity:1;stroke:none;font-family:Sans;-inkscape-font-specification:Sans Bold"
         xml:space="preserve"><tspan
           y="696.94244"
           x="185.82042"
           id="tspan16604-9"
           sodipodi:role="line">S3</tspan></text>
      <g
         transform="matrix(1.018342,0,0,0.75102584,-33.788613,403.05248)"
         id="g6360">
        <path
           sodipodi:nodetypes="ccccc"
           inkscape:connector-curvature="0"
           id="path15750-1-40-6-7-1-5"
           d="m 153.36599,393.67759 115.16866,31.60822 0,50.83001 -113.18475,24.21055 z"
           style="fill:#9ece9e;fill-opacity:1;stroke:#000000;stroke-width:0.90952528px;stroke-linecap:butt;stroke-linejoin:miter;stroke-opacity:1" />
      </g>
      <path
         sodipodi:nodetypes="cc"
         style="fill:#ff6600;stroke:#ff6600;stroke-width:1.88788188;stroke-linecap:butt;stroke-linejoin:miter;stroke-miterlimit:4;stroke-opacity:1;stroke-dasharray:5.66364565, 1.88788188;stroke-dashoffset:0;marker-end:url(#Arrow1Mendn)"
         d="m 128.94652,740.49703 103.3598,-0.11585"
         id="path5454"
         inkscape:connector-curvature="0" />
      <text
         transform="scale(1.0006824,0.99931807)"
         sodipodi:linespacing="125%"
         id="text15373-1-20-7"
         y="712.4892"
         x="230.42564"
         style="font-size:6px;font-style:normal;font-variant:normal;font-weight:normal;font-stretch:normal;text-align:start;line-height:125%;letter-spacing:0px;word-spacing:0px;writing-mode:lr-tb;text-anchor:start;fill:#000000;fill-opacity:1;stroke:none;font-family:Sans;-inkscape-font-specification:Sans"
         xml:space="preserve"><tspan
           style="font-size:6px;font-style:normal;font-variant:normal;font-weight:normal;font-stretch:normal;text-align:start;line-height:125%;writing-mode:lr-tb;text-anchor:start;font-family:Sans;-inkscape-font-specification:Sans"
           y="712.4892"
           x="230.42564"
           id="tspan15375-5-1-7"
           sodipodi:role="line">N1 (x,y,z,r)</tspan></text>
      <text
         sodipodi:linespacing="125%"
         id="text17152"
         y="803.76495"
         x="103.36409"
         style="font-size:12px;font-style:normal;font-variant:normal;font-weight:normal;font-stretch:normal;text-align:start;line-height:125%;letter-spacing:0px;word-spacing:0px;writing-mode:lr-tb;text-anchor:start;fill:#000000;fill-opacity:1;stroke:none;font-family:Sans;-inkscape-font-specification:Sans"
         xml:space="preserve"><tspan
           y="803.76495"
           x="103.36409"
           id="tspan17154"
           sodipodi:role="line">distal</tspan></text>
      <text
         sodipodi:linespacing="125%"
         id="text17156"
         y="799.21918"
         x="219.02654"
         style="font-size:12px;font-style:normal;font-variant:normal;font-weight:normal;font-stretch:normal;text-align:start;line-height:125%;letter-spacing:0px;word-spacing:0px;writing-mode:lr-tb;text-anchor:start;fill:#000000;fill-opacity:1;stroke:none;font-family:Sans;-inkscape-font-specification:Sans"
         xml:space="preserve"><tspan
           y="799.21918"
           x="219.02654"
           id="tspan17158"
           sodipodi:role="line">proximal</tspan></text>
    </g>
  </g>
</svg>
