<?xml version="1.0" encoding="UTF-8" standalone="no"?>
<!-- Created with Inkscape (http://www.inkscape.org/) -->

<svg
   xmlns:dc="http://purl.org/dc/elements/1.1/"
   xmlns:cc="http://creativecommons.org/ns#"
   xmlns:rdf="http://www.w3.org/1999/02/22-rdf-syntax-ns#"
   xmlns:svg="http://www.w3.org/2000/svg"
   xmlns="http://www.w3.org/2000/svg"
   xmlns:sodipodi="http://sodipodi.sourceforge.net/DTD/sodipodi-0.dtd"
   xmlns:inkscape="http://www.inkscape.org/namespaces/inkscape"
   width="369.08615"
   height="222.99315"
   id="svg2"
   version="1.1"
   inkscape:version="0.48.2 r9819"
   sodipodi:docname="new_morphology_overview_simplecylinders_tree_complex.svg">
  <defs
     id="defs4">
    <marker
       inkscape:stockid="Arrow1Lend"
       orient="auto"
       refY="0"
       refX="0"
       id="Arrow1Lend"
       style="overflow:visible">
      <path
         id="path6153"
         d="M 0,0 5,-5 -12.5,0 5,5 0,0 z"
         style="fill-rule:evenodd;stroke:#000000;stroke-width:1pt;marker-start:none"
         transform="matrix(-0.8,0,0,-0.8,-10,0)"
         inkscape:connector-curvature="0" />
    </marker>
    <marker
       inkscape:stockid="Arrow2Mstart"
       orient="auto"
       refY="0"
       refX="0"
       id="Arrow2Mstart"
       style="overflow:visible">
      <path
         id="path6174"
         style="font-size:12px;fill-rule:evenodd;stroke-width:0.625;stroke-linejoin:round"
         d="M 8.7185878,4.0337352 -2.2072895,0.01601326 8.7185884,-4.0017078 c -1.7454984,2.3720609 -1.7354408,5.6174519 -6e-7,8.035443 z"
         transform="scale(0.6,0.6)"
         inkscape:connector-curvature="0" />
    </marker>
    <marker
       inkscape:stockid="Arrow1Sstart"
       orient="auto"
       refY="0"
       refX="0"
       id="Arrow1Sstart"
       style="overflow:visible">
      <path
         id="path6162"
         d="M 0,0 5,-5 -12.5,0 5,5 0,0 z"
         style="fill-rule:evenodd;stroke:#000000;stroke-width:1pt;marker-start:none"
         transform="matrix(0.2,0,0,0.2,1.2,0)"
         inkscape:connector-curvature="0" />
    </marker>
    <marker
       inkscape:stockid="Arrow2Lend"
       orient="auto"
       refY="0"
       refX="0"
       id="Arrow2Lend"
       style="overflow:visible">
      <path
         id="path6171"
         style="font-size:12px;fill-rule:evenodd;stroke-width:0.625;stroke-linejoin:round"
         d="M 8.7185878,4.0337352 -2.2072895,0.01601326 8.7185884,-4.0017078 c -1.7454984,2.3720609 -1.7354408,5.6174519 -6e-7,8.035443 z"
         transform="matrix(-1.1,0,0,-1.1,-1.1,0)"
         inkscape:connector-curvature="0" />
    </marker>
    <marker
       style="overflow:visible"
       id="Arrow1MendL"
       refX="0"
       refY="0"
       orient="auto"
       inkscape:stockid="Arrow1MendL">
      <path
         transform="matrix(-0.4,0,0,-0.4,-4,0)"
         style="fill:#ff6600;fill-rule:evenodd;stroke:#ff6600;stroke-width:1pt;marker-start:none"
         d="M 0,0 5,-5 -12.5,0 5,5 0,0 z"
         id="path5919"
         inkscape:connector-curvature="0" />
    </marker>
    <marker
       style="overflow:visible"
       id="Arrow1MendO"
       refX="0"
       refY="0"
       orient="auto"
       inkscape:stockid="Arrow1MendO">
      <path
         transform="matrix(-0.4,0,0,-0.4,-4,0)"
         style="fill:#ff6600;fill-rule:evenodd;stroke:#ff6600;stroke-width:1pt;marker-start:none"
         d="M 0,0 5,-5 -12.5,0 5,5 0,0 z"
         id="path5946"
         inkscape:connector-curvature="0" />
    </marker>
    <marker
       style="overflow:visible"
       id="Arrow1MendB"
       refX="0"
       refY="0"
       orient="auto"
       inkscape:stockid="Arrow1MendB">
      <path
         transform="matrix(-0.4,0,0,-0.4,-4,0)"
         style="fill:#ff6600;fill-rule:evenodd;stroke:#ff6600;stroke-width:1pt;marker-start:none"
         d="M 0,0 5,-5 -12.5,0 5,5 0,0 z"
         id="path5877"
         inkscape:connector-curvature="0" />
    </marker>
    <marker
       style="overflow:visible"
       id="marker13273"
       refX="0"
       refY="0"
       orient="auto"
       inkscape:stockid="Arrow1MendB">
      <path
         transform="matrix(-0.4,0,0,-0.4,-4,0)"
         style="fill:#ff6600;fill-rule:evenodd;stroke:#ff6600;stroke-width:1pt;marker-start:none"
         d="M 0,0 5,-5 -12.5,0 5,5 0,0 z"
         id="path13275"
         inkscape:connector-curvature="0" />
    </marker>
    <marker
       style="overflow:visible"
       id="marker13277"
       refX="0"
       refY="0"
       orient="auto"
       inkscape:stockid="Arrow1MendB">
      <path
         transform="matrix(-0.4,0,0,-0.4,-4,0)"
         style="fill:#ff6600;fill-rule:evenodd;stroke:#ff6600;stroke-width:1pt;marker-start:none"
         d="M 0,0 5,-5 -12.5,0 5,5 0,0 z"
         id="path13279"
         inkscape:connector-curvature="0" />
    </marker>
    <marker
       style="overflow:visible"
       id="Arrow1Mendi"
       refX="0"
       refY="0"
       orient="auto"
       inkscape:stockid="Arrow1Mendi">
      <path
         transform="matrix(-0.4,0,0,-0.4,-4,0)"
         style="fill:#ff6600;fill-rule:evenodd;stroke:#ff6600;stroke-width:1pt;marker-start:none"
         d="M 0,0 5,-5 -12.5,0 5,5 0,0 z"
         id="path5868"
         inkscape:connector-curvature="0" />
    </marker>
    <marker
       style="overflow:visible"
       id="Arrow1MendS"
       refX="0"
       refY="0"
       orient="auto"
       inkscape:stockid="Arrow1MendS">
      <path
         transform="matrix(-0.4,0,0,-0.4,-4,0)"
         style="fill:#ff6600;fill-rule:evenodd;stroke:#ff6600;stroke-width:1pt;marker-start:none"
         d="M 0,0 5,-5 -12.5,0 5,5 0,0 z"
         id="path5871"
         inkscape:connector-curvature="0" />
    </marker>
    <marker
       style="overflow:visible"
       id="Arrow1Mendv"
       refX="0"
       refY="0"
       orient="auto"
       inkscape:stockid="Arrow1Mendv">
      <path
         transform="matrix(-0.4,0,0,-0.4,-4,0)"
         style="fill:#ff6600;fill-rule:evenodd;stroke:#ff6600;stroke-width:1pt;marker-start:none"
         d="M 0,0 5,-5 -12.5,0 5,5 0,0 z"
         id="path5874"
         inkscape:connector-curvature="0" />
    </marker>
    <marker
       style="overflow:visible"
       id="marker13287"
       refX="0"
       refY="0"
       orient="auto"
       inkscape:stockid="Arrow1MendO">
      <path
         transform="matrix(-0.4,0,0,-0.4,-4,0)"
         style="fill:#ff6600;fill-rule:evenodd;stroke:#ff6600;stroke-width:1pt;marker-start:none"
         d="M 0,0 5,-5 -12.5,0 5,5 0,0 z"
         id="path13289"
         inkscape:connector-curvature="0" />
    </marker>
    <marker
       style="overflow:visible"
       id="Arrow1MendM"
       refX="0"
       refY="0"
       orient="auto"
       inkscape:stockid="Arrow1MendM">
      <path
         transform="matrix(-0.4,0,0,-0.4,-4,0)"
         style="fill:#ff6600;fill-rule:evenodd;stroke:#ff6600;stroke-width:1pt;marker-start:none"
         d="M 0,0 5,-5 -12.5,0 5,5 0,0 z"
         id="path5913"
         inkscape:connector-curvature="0" />
    </marker>
    <marker
       style="overflow:visible"
       id="Arrow1MendY"
       refX="0"
       refY="0"
       orient="auto"
       inkscape:stockid="Arrow1MendY">
      <path
         transform="matrix(-0.4,0,0,-0.4,-4,0)"
         style="fill:#ff6600;fill-rule:evenodd;stroke:#ff6600;stroke-width:1pt;marker-start:none"
         d="M 0,0 5,-5 -12.5,0 5,5 0,0 z"
         id="path5865"
         inkscape:connector-curvature="0" />
    </marker>
    <marker
       style="overflow:visible"
       id="Arrow1Mendf"
       refX="0"
       refY="0"
       orient="auto"
       inkscape:stockid="Arrow1Mendf">
      <path
         transform="matrix(-0.4,0,0,-0.4,-4,0)"
         style="fill:#ff6600;fill-rule:evenodd;stroke:#ff6600;stroke-width:1pt;marker-start:none"
         d="M 0,0 5,-5 -12.5,0 5,5 0,0 z"
         id="path5883"
         inkscape:connector-curvature="0" />
    </marker>
    <marker
       style="overflow:visible"
       id="Arrow1Mendq7"
       refX="0"
       refY="0"
       orient="auto"
       inkscape:stockid="Arrow1Mendq7">
      <path
         transform="matrix(-0.4,0,0,-0.4,-4,0)"
         style="fill:#ff6600;fill-rule:evenodd;stroke:#ff6600;stroke-width:1pt;marker-start:none"
         d="M 0,0 5,-5 -12.5,0 5,5 0,0 z"
         id="path5901"
         inkscape:connector-curvature="0" />
    </marker>
    <marker
       style="overflow:visible"
       id="Arrow1Mendu"
       refX="0"
       refY="0"
       orient="auto"
       inkscape:stockid="Arrow1Mendu">
      <path
         transform="matrix(-0.4,0,0,-0.4,-4,0)"
         style="fill:#ff6600;fill-rule:evenodd;stroke:#ff6600;stroke-width:1pt;marker-start:none"
         d="M 0,0 5,-5 -12.5,0 5,5 0,0 z"
         id="path5922"
         inkscape:connector-curvature="0" />
    </marker>
    <marker
       style="overflow:visible"
       id="Arrow1MendF"
       refX="0"
       refY="0"
       orient="auto"
       inkscape:stockid="Arrow1MendF">
      <path
         transform="matrix(-0.4,0,0,-0.4,-4,0)"
         style="fill:#ff6600;fill-rule:evenodd;stroke:#ff6600;stroke-width:1pt;marker-start:none"
         d="M 0,0 5,-5 -12.5,0 5,5 0,0 z"
         id="path5916"
         inkscape:connector-curvature="0" />
    </marker>
    <marker
       style="overflow:visible"
       id="Arrow1MendYk"
       refX="0"
       refY="0"
       orient="auto"
       inkscape:stockid="Arrow1MendYk">
      <path
         transform="matrix(-0.4,0,0,-0.4,-4,0)"
         style="fill:#ff6600;fill-rule:evenodd;stroke:#ff6600;stroke-width:1pt;marker-start:none"
         d="M 0,0 5,-5 -12.5,0 5,5 0,0 z"
         id="path5892"
         inkscape:connector-curvature="0" />
    </marker>
    <marker
       style="overflow:visible"
       id="Arrow1MendC"
       refX="0"
       refY="0"
       orient="auto"
       inkscape:stockid="Arrow1MendC">
      <path
         transform="matrix(-0.4,0,0,-0.4,-4,0)"
         style="fill:#ff6600;fill-rule:evenodd;stroke:#ff6600;stroke-width:1pt;marker-start:none"
         d="M 0,0 5,-5 -12.5,0 5,5 0,0 z"
         id="path5937"
         inkscape:connector-curvature="0" />
    </marker>
    <marker
       style="overflow:visible"
       id="Arrow1Mendna"
       refX="0"
       refY="0"
       orient="auto"
       inkscape:stockid="Arrow1Mendna">
      <path
         transform="matrix(-0.4,0,0,-0.4,-4,0)"
         style="fill:#ff6600;fill-rule:evenodd;stroke:#ff6600;stroke-width:1pt;marker-start:none"
         d="M 0,0 5,-5 -12.5,0 5,5 0,0 z"
         id="path5934"
         inkscape:connector-curvature="0" />
    </marker>
    <marker
       style="overflow:visible"
       id="Arrow1Mendn"
       refX="0"
       refY="0"
       orient="auto"
       inkscape:stockid="Arrow1Mendn">
      <path
         transform="matrix(-0.4,0,0,-0.4,-4,0)"
         style="fill:#ff6600;fill-rule:evenodd;stroke:#ff6600;stroke-width:1pt;marker-start:none"
         d="M 0,0 5,-5 -12.5,0 5,5 0,0 z"
         id="path5931"
         inkscape:connector-curvature="0" />
    </marker>
    <marker
       style="overflow:visible"
       id="Arrow1Mend6"
       refX="0"
       refY="0"
       orient="auto"
       inkscape:stockid="Arrow1Mend6">
      <path
         transform="matrix(-0.4,0,0,-0.4,-4,0)"
         style="fill:#ff6600;fill-rule:evenodd;stroke:#ff6600;stroke-width:1pt;marker-start:none"
         d="M 0,0 5,-5 -12.5,0 5,5 0,0 z"
         id="path5886"
         inkscape:connector-curvature="0" />
    </marker>
    <marker
       style="overflow:visible"
       id="marker13313"
       refX="0"
       refY="0"
       orient="auto"
       inkscape:stockid="Arrow1MendB">
      <path
         transform="matrix(-0.4,0,0,-0.4,-4,0)"
         style="fill:#ff6600;fill-rule:evenodd;stroke:#ff6600;stroke-width:1pt;marker-start:none"
         d="M 0,0 5,-5 -12.5,0 5,5 0,0 z"
         id="path13315"
         inkscape:connector-curvature="0" />
    </marker>
    <marker
       style="overflow:visible"
       id="Arrow1MendYt"
       refX="0"
       refY="0"
       orient="auto"
       inkscape:stockid="Arrow1MendYt">
      <path
         transform="matrix(-0.4,0,0,-0.4,-4,0)"
         style="fill:#ff6600;fill-rule:evenodd;stroke:#ff6600;stroke-width:1pt;marker-start:none"
         d="M 0,0 5,-5 -12.5,0 5,5 0,0 z"
         id="path5889"
         inkscape:connector-curvature="0" />
    </marker>
    <marker
       style="overflow:visible"
       id="Arrow1Mend7Y"
       refX="0"
       refY="0"
       orient="auto"
       inkscape:stockid="Arrow1Mend7Y">
      <path
         transform="matrix(-0.4,0,0,-0.4,-4,0)"
         style="fill:#ff6600;fill-rule:evenodd;stroke:#ff6600;stroke-width:1pt;marker-start:none"
         d="M 0,0 5,-5 -12.5,0 5,5 0,0 z"
         id="path5910"
         inkscape:connector-curvature="0" />
    </marker>
    <marker
       style="overflow:visible"
       id="Arrow1Mend7"
       refX="0"
       refY="0"
       orient="auto"
       inkscape:stockid="Arrow1Mend7">
      <path
         transform="matrix(-0.4,0,0,-0.4,-4,0)"
         style="fill:#ff6600;fill-rule:evenodd;stroke:#ff6600;stroke-width:1pt;marker-start:none"
         d="M 0,0 5,-5 -12.5,0 5,5 0,0 z"
         id="path5895"
         inkscape:connector-curvature="0" />
    </marker>
    <marker
       style="overflow:visible"
       id="Arrow1Mend9"
       refX="0"
       refY="0"
       orient="auto"
       inkscape:stockid="Arrow1Mend9">
      <path
         transform="matrix(-0.4,0,0,-0.4,-4,0)"
         style="fill:#ff6600;fill-rule:evenodd;stroke:#ff6600;stroke-width:1pt;marker-start:none"
         d="M 0,0 5,-5 -12.5,0 5,5 0,0 z"
         id="path5898"
         inkscape:connector-curvature="0" />
    </marker>
    <marker
       style="overflow:visible"
       id="Arrow1Mendq"
       refX="0"
       refY="0"
       orient="auto"
       inkscape:stockid="Arrow1Mendq">
      <path
         transform="matrix(-0.4,0,0,-0.4,-4,0)"
         style="fill:#ff6600;fill-rule:evenodd;stroke:#ff6600;stroke-width:1pt;marker-start:none"
         d="M 0,0 5,-5 -12.5,0 5,5 0,0 z"
         id="path5880"
         inkscape:connector-curvature="0" />
    </marker>
    <marker
       style="overflow:visible"
       id="Arrow1MendCj"
       refX="0"
       refY="0"
       orient="auto"
       inkscape:stockid="Arrow1MendCj">
      <path
         transform="matrix(-0.4,0,0,-0.4,-4,0)"
         style="fill:#ff6600;fill-rule:evenodd;stroke:#ff6600;stroke-width:1pt;marker-start:none"
         d="M 0,0 5,-5 -12.5,0 5,5 0,0 z"
         id="path5940"
         inkscape:connector-curvature="0" />
    </marker>
    <marker
       style="overflow:visible"
       id="Arrow1Mendy"
       refX="0"
       refY="0"
       orient="auto"
       inkscape:stockid="Arrow1Mendy">
      <path
         transform="matrix(-0.4,0,0,-0.4,-4,0)"
         style="fill:#ff6600;fill-rule:evenodd;stroke:#ff6600;stroke-width:1pt;marker-start:none"
         d="M 0,0 5,-5 -12.5,0 5,5 0,0 z"
         id="path5925"
         inkscape:connector-curvature="0" />
    </marker>
    <marker
       style="overflow:visible"
       id="Arrow1Mende"
       refX="0"
       refY="0"
       orient="auto"
       inkscape:stockid="Arrow1Mende">
      <path
         transform="matrix(-0.4,0,0,-0.4,-4,0)"
         style="fill:#ff6600;fill-rule:evenodd;stroke:#ff6600;stroke-width:1pt;marker-start:none"
         d="M 0,0 5,-5 -12.5,0 5,5 0,0 z"
         id="path5928"
         inkscape:connector-curvature="0" />
    </marker>
    <marker
       style="overflow:visible"
       id="Arrow1MendG"
       refX="0"
       refY="0"
       orient="auto"
       inkscape:stockid="Arrow1MendG">
      <path
         transform="matrix(-0.4,0,0,-0.4,-4,0)"
         style="fill:#ff6600;fill-rule:evenodd;stroke:#ff6600;stroke-width:1pt;marker-start:none"
         d="M 0,0 5,-5 -12.5,0 5,5 0,0 z"
         id="path5904"
         inkscape:connector-curvature="0" />
    </marker>
    <marker
       style="overflow:visible"
       id="Arrow1MendfT"
       refX="0"
       refY="0"
       orient="auto"
       inkscape:stockid="Arrow1MendfT">
      <path
         transform="matrix(-0.4,0,0,-0.4,-4,0)"
         style="fill:#ff6600;fill-rule:evenodd;stroke:#ff6600;stroke-width:1pt;marker-start:none"
         d="M 0,0 5,-5 -12.5,0 5,5 0,0 z"
         id="path5907"
         inkscape:connector-curvature="0" />
    </marker>
    <marker
       style="overflow:visible"
       id="marker13337"
       refX="0"
       refY="0"
       orient="auto"
       inkscape:stockid="Arrow1MendL">
      <path
         transform="matrix(-0.4,0,0,-0.4,-4,0)"
         style="fill:#ff6600;fill-rule:evenodd;stroke:#ff6600;stroke-width:1pt;marker-start:none"
         d="M 0,0 5,-5 -12.5,0 5,5 0,0 z"
         id="path13339"
         inkscape:connector-curvature="0" />
    </marker>
    <marker
       style="overflow:visible"
       id="Arrow1Lstart"
       refX="0"
       refY="0"
       orient="auto"
       inkscape:stockid="Arrow1Lstart">
      <path
         transform="matrix(0.8,0,0,0.8,10,0)"
         style="fill-rule:evenodd;stroke:#000000;stroke-width:1pt;marker-start:none"
         d="M 0,0 5,-5 -12.5,0 5,5 0,0 z"
         id="path4797"
         inkscape:connector-curvature="0" />
    </marker>
    <marker
       style="overflow:visible"
       id="Arrow1MendiN"
       refX="0"
       refY="0"
       orient="auto"
       inkscape:stockid="Arrow1MendiN">
      <path
         transform="matrix(-0.4,0,0,-0.4,-4,0)"
         style="fill:#ff6600;fill-rule:evenodd;stroke:#ff6600;stroke-width:1pt;marker-start:none"
         d="M 0,0 5,-5 -12.5,0 5,5 0,0 z"
         id="path5943"
         inkscape:connector-curvature="0" />
    </marker>
    <marker
       style="overflow:visible"
       id="Arrow1MendYk-0"
       refX="0"
       refY="0"
       orient="auto"
       inkscape:stockid="Arrow1MendYk">
      <path
         transform="matrix(-0.4,0,0,-0.4,-4,0)"
         style="fill:#ff6600;fill-rule:evenodd;stroke:#ff6600;stroke-width:1pt;marker-start:none"
         d="M 0,0 5,-5 -12.5,0 5,5 0,0 z"
         id="path5892-4"
         inkscape:connector-curvature="0" />
    </marker>
    <marker
       style="overflow:visible"
       id="Arrow1MendL-2"
       refX="0"
       refY="0"
       orient="auto"
       inkscape:stockid="Arrow1MendL">
      <path
         transform="matrix(-0.4,0,0,-0.4,-4,0)"
         style="fill:#ff6600;fill-rule:evenodd;stroke:#ff6600;stroke-width:1pt;marker-start:none"
         d="M 0,0 5,-5 -12.5,0 5,5 0,0 z"
         id="path5919-5"
         inkscape:connector-curvature="0" />
    </marker>
    <marker
       style="overflow:visible"
       id="Arrow1MendYk-2"
       refX="0"
       refY="0"
       orient="auto"
       inkscape:stockid="Arrow1MendYk">
      <path
         transform="matrix(-0.4,0,0,-0.4,-4,0)"
         style="fill:#ff6600;fill-rule:evenodd;stroke:#ff6600;stroke-width:1pt;marker-start:none"
         d="M 0,0 5,-5 -12.5,0 5,5 0,0 z"
         id="path5892-8"
         inkscape:connector-curvature="0" />
    </marker>
    <marker
       style="overflow:visible"
       id="Arrow1MendL-8"
       refX="0"
       refY="0"
       orient="auto"
       inkscape:stockid="Arrow1MendL">
      <path
         transform="matrix(-0.4,0,0,-0.4,-4,0)"
         style="fill:#ff6600;fill-rule:evenodd;stroke:#ff6600;stroke-width:1pt;marker-start:none"
         d="M 0,0 5,-5 -12.5,0 5,5 0,0 z"
         id="path5919-0"
         inkscape:connector-curvature="0" />
    </marker>
    <marker
       style="overflow:visible"
       id="Arrow1MendL-81"
       refX="0"
       refY="0"
       orient="auto"
       inkscape:stockid="Arrow1MendL">
      <path
         transform="matrix(-0.4,0,0,-0.4,-4,0)"
         style="fill:#ff6600;fill-rule:evenodd;stroke:#ff6600;stroke-width:1pt;marker-start:none"
         d="M 0,0 5,-5 -12.5,0 5,5 0,0 z"
         id="path5919-2"
         inkscape:connector-curvature="0" />
    </marker>
    <marker
       inkscape:stockid="Arrow2Mstart"
       orient="auto"
       refY="0"
       refX="0"
       id="Arrow2Mstart-8"
       style="overflow:visible">
      <path
         inkscape:connector-curvature="0"
         id="path6174-3"
         style="font-size:12px;fill-rule:evenodd;stroke-width:0.625;stroke-linejoin:round"
         d="M 8.7185878,4.0337352 -2.2072895,0.01601326 8.7185884,-4.0017078 c -1.7454984,2.3720609 -1.7354408,5.6174519 -6e-7,8.035443 z"
         transform="scale(0.6,0.6)" />
    </marker>
    <marker
       inkscape:stockid="Arrow2Mstart"
       orient="auto"
       refY="0"
       refX="0"
       id="Arrow2Mstart-7"
       style="overflow:visible">
      <path
         inkscape:connector-curvature="0"
         id="path6174-4"
         style="font-size:12px;fill-rule:evenodd;stroke-width:0.625;stroke-linejoin:round"
         d="M 8.7185878,4.0337352 -2.2072895,0.01601326 8.7185884,-4.0017078 c -1.7454984,2.3720609 -1.7354408,5.6174519 -6e-7,8.035443 z"
         transform="scale(0.6,0.6)" />
    </marker>
    <marker
       inkscape:stockid="Arrow2Mstart"
       orient="auto"
       refY="0"
       refX="0"
       id="Arrow2Mstart-82"
       style="overflow:visible">
      <path
         inkscape:connector-curvature="0"
         id="path6174-8"
         style="font-size:12px;fill-rule:evenodd;stroke-width:0.625;stroke-linejoin:round"
         d="M 8.7185878,4.0337352 -2.2072895,0.01601326 8.7185884,-4.0017078 c -1.7454984,2.3720609 -1.7354408,5.6174519 -6e-7,8.035443 z"
         transform="scale(0.6,0.6)" />
    </marker>
  </defs>
  <sodipodi:namedview
     id="base"
     pagecolor="#ffffff"
     bordercolor="#666666"
     borderopacity="1.0"
     inkscape:pageopacity="0.0"
     inkscape:pageshadow="2"
     inkscape:zoom="0.98994949"
     inkscape:cx="434.92977"
     inkscape:cy="-71.397564"
     inkscape:document-units="px"
     inkscape:current-layer="layer1"
     showgrid="false"
     inkscape:window-width="1680"
     inkscape:window-height="1026"
     inkscape:window-x="1680"
     inkscape:window-y="24"
     inkscape:window-maximized="1"
     units="in"
     fit-margin-top="0"
     fit-margin-left="0"
     fit-margin-right="0"
     fit-margin-bottom="0"
     showguides="true"
     inkscape:guide-bbox="true" />
  <metadata
     id="metadata7">
    <rdf:RDF>
      <cc:Work
         rdf:about="">
        <dc:format>image/svg+xml</dc:format>
        <dc:type
           rdf:resource="http://purl.org/dc/dcmitype/StillImage" />
        <dc:title></dc:title>
      </cc:Work>
    </rdf:RDF>
  </metadata>
  <g
     inkscape:label="Layer 1"
     inkscape:groupmode="layer"
     id="layer1"
     transform="translate(0.59092835,-600.56248)">
    <rect
       style="fill:#ebebeb;fill-opacity:1;stroke:#000000;stroke-width:0.37333488;stroke-miterlimit:4;stroke-opacity:1;stroke-dasharray:none;stroke-dashoffset:0"
       id="rect6356"
       width="368.71283"
       height="222.61981"
       x="-0.4042609"
       y="600.74915" />
    <g
       id="g6360"
       transform="matrix(1.018342,0,0,0.75102584,269.15232,576.64525)" />
    <g
       id="g3333">
      <path
         sodipodi:nodetypes="ccccc"
         inkscape:connector-curvature="0"
         id="path15750-1-40-6-7"
         d="m 221.02355,757.8777 17.30597,-12.74295 11.59769,20.87277 -12.58049,10.11401 z"
         style="fill:#a1ce9e;fill-opacity:1;stroke:#000000;stroke-width:0.76903969px;stroke-linecap:butt;stroke-linejoin:miter;stroke-opacity:1" />
      <path
         style="fill:none;stroke:#000000;stroke-width:0;stroke-linecap:butt;stroke-linejoin:miter;stroke-miterlimit:4;stroke-opacity:1;stroke-dasharray:none;marker-start:url(#Arrow1Lstart)"
         d="m 102.3272,676.11156 68.76029,16.56729"
         id="path5238"
         inkscape:connector-curvature="0" />
      <path
         sodipodi:nodetypes="ccccc"
         inkscape:connector-curvature="0"
         id="path15750-1-40"
         d="m 111.17645,678.12915 4.0106,-9.56527 38.22577,-11.30485 -24.7597,52.40345 z"
         style="fill:#00ff00;fill-opacity:1;stroke:#000000;stroke-width:0.76903969px;stroke-linecap:butt;stroke-linejoin:miter;stroke-opacity:1" />
      <path
         sodipodi:nodetypes="ccccc"
         inkscape:connector-curvature="0"
         id="path15750-1-40-6-5"
         d="m 216.26466,701.88076 23.51382,-19.37791 12.47466,21.40762 -31.79108,7.91867 z"
         style="fill:#a1ce9e;fill-opacity:1;stroke:#000000;stroke-width:0.76903969px;stroke-linecap:butt;stroke-linejoin:miter;stroke-opacity:1" />
      <path
         sodipodi:nodetypes="cc"
         style="fill:#ff6600;stroke:#ff6600;stroke-width:0.97514236;stroke-linecap:butt;stroke-linejoin:miter;stroke-miterlimit:4;stroke-opacity:1;stroke-dasharray:2.92542706, 0.97514235;stroke-dashoffset:0;marker-end:url(#Arrow1Mendy)"
         d="m 244.52748,692.38234 -23.36452,11.67132"
         id="path5436"
         inkscape:connector-curvature="0" />
      <path
         sodipodi:nodetypes="ccccc"
         inkscape:connector-curvature="0"
         id="path15750-1-40-6-0"
         d="m 244.15751,682.37692 18.27795,-23.75955 17.91148,11.79792 -23.90962,24.27856 z"
         style="fill:#a1ce9e;fill-opacity:1;stroke:#000000;stroke-width:0.76903969px;stroke-linecap:butt;stroke-linejoin:miter;stroke-opacity:1" />
      <path
         sodipodi:nodetypes="cc"
         style="fill:#ff6600;stroke:#ff6600;stroke-width:0.97514236;stroke-linecap:butt;stroke-linejoin:miter;stroke-miterlimit:4;stroke-opacity:1;stroke-dasharray:2.92542706, 0.97514235;stroke-dashoffset:0;marker-end:url(#Arrow1MendCj)"
         d="m 270.47514,661.24745 -21.36036,26.88319"
         id="path5438"
         inkscape:connector-curvature="0" />
      <path
         sodipodi:nodetypes="ccccc"
         inkscape:connector-curvature="0"
         id="path15750-1-40-6-4"
         d="m 265.6497,636.17693 11.05814,4.8747 -2.60463,14.76029 -13.09026,-3.6694 z"
         style="fill:#a1ce9e;fill-opacity:1;stroke:#000000;stroke-width:0.76903969px;stroke-linecap:butt;stroke-linejoin:miter;stroke-opacity:1" />
      <path
         sodipodi:nodetypes="cc"
         style="fill:#ff6600;stroke:#ff6600;stroke-width:0.97514236;stroke-linecap:butt;stroke-linejoin:miter;stroke-miterlimit:4;stroke-opacity:1;stroke-dasharray:2.92542706, 0.97514235;stroke-dashoffset:0;marker-end:url(#Arrow1Mend9)"
         d="m 271.5182,640.98788 -3.49005,11.44747"
         id="path5442"
         inkscape:connector-curvature="0" />
      <path
         sodipodi:nodetypes="ccccc"
         inkscape:connector-curvature="0"
         id="path15750-1-40-6-9"
         d="m 276.19482,655.83347 16.47859,-10.14509 8.37765,12.99804 -16.17597,8.77768 z"
         style="fill:#a1ce9e;fill-opacity:1;stroke:#000000;stroke-width:0.76903969px;stroke-linecap:butt;stroke-linejoin:miter;stroke-opacity:1" />
      <path
         sodipodi:nodetypes="cc"
         style="fill:#ff6600;stroke:#ff6600;stroke-width:0.97514236;stroke-linecap:butt;stroke-linejoin:miter;stroke-miterlimit:4;stroke-opacity:1;stroke-dasharray:2.92542706, 0.97514235;stroke-dashoffset:0;marker-end:url(#Arrow1Mend7)"
         d="m 295.31221,653.67929 -13.517,6.14549"
         id="path5444"
         inkscape:connector-curvature="0" />
      <path
         sodipodi:nodetypes="ccccc"
         inkscape:connector-curvature="0"
         id="path15750-1-40-6-77"
         d="m 301.50459,642.67772 50.92214,-27.67891 8.09659,12.27381 -51.06268,27.31679 z"
         style="fill:#a1ce9e;fill-opacity:1;stroke:#000000;stroke-width:0.76903969px;stroke-linecap:butt;stroke-linejoin:miter;stroke-opacity:1" />
      <path
         sodipodi:nodetypes="cc"
         style="fill:#ff6600;stroke:#ff6600;stroke-width:0.97514236;stroke-linecap:butt;stroke-linejoin:miter;stroke-miterlimit:4;stroke-opacity:1;stroke-dasharray:2.92542706, 0.97514235;stroke-dashoffset:0;marker-end:url(#Arrow1Mend7Y)"
         d="m 354.04007,621.74406 -47.00521,25.7163"
         id="path5446"
         inkscape:connector-curvature="0" />
      <path
         sodipodi:nodetypes="ccccc"
         inkscape:connector-curvature="0"
         id="path15750-1-40-6-8"
         d="m 268.08705,630.64787 9.94942,-20.5273 10.69603,5.01524 -8.19836,18.59777 z"
         style="fill:#a1ce9e;fill-opacity:1;stroke:#000000;stroke-width:0.76903969px;stroke-linecap:butt;stroke-linejoin:miter;stroke-opacity:1" />
      <path
         sodipodi:nodetypes="cc"
         style="fill:#ff6600;stroke:#ff6600;stroke-width:0.97514236;stroke-linecap:butt;stroke-linejoin:miter;stroke-miterlimit:4;stroke-opacity:1;stroke-dasharray:2.92542706, 0.97514235;stroke-dashoffset:0;marker-end:url(#Arrow1MendYt)"
         d="m 282.85465,614.21119 -6.96396,17.46482"
         id="path5448"
         inkscape:connector-curvature="0" />
      <path
         sodipodi:nodetypes="ccccc"
         inkscape:connector-curvature="0"
         id="path15750-1-4"
         d="m 25.076194,643.97699 1.236239,10.70015 38.722331,-2.65491 0.839876,-9.57229 z"
         style="fill:#a1ce9e;fill-opacity:1;stroke:#000000;stroke-width:0.76903969px;stroke-linecap:butt;stroke-linejoin:miter;stroke-opacity:1" />
      <path
         sodipodi:nodetypes="cc"
         style="fill:#ff6600;stroke:#ff6600;stroke-width:0.97514236;stroke-linecap:butt;stroke-linejoin:miter;stroke-miterlimit:4;stroke-opacity:1;stroke-dasharray:2.92542706, 0.97514235;stroke-dashoffset:0;marker-end:url(#Arrow1Mend6)"
         d="m 26.578767,649.495 42.02055,-1.99883"
         id="path5452"
         inkscape:connector-curvature="0" />
      <path
         sodipodi:nodetypes="ccccc"
         inkscape:connector-curvature="0"
         id="path15750-1"
         d="m 10.279983,682.03958 4.794152,11.10689 49.027815,-19.12578 -4.000776,-10.11711 z"
         style="fill:#a1ce9e;fill-opacity:1;stroke:#000000;stroke-width:0.76903969px;stroke-linecap:butt;stroke-linejoin:miter;stroke-opacity:1" />
      <path
         sodipodi:nodetypes="cc"
         style="fill:#ff6600;stroke:#ff6600;stroke-width:0.97514236;stroke-linecap:butt;stroke-linejoin:miter;stroke-miterlimit:4;stroke-opacity:1;stroke-dasharray:2.92542706, 0.97514235;stroke-dashoffset:0;marker-end:url(#Arrow1Mendn)"
         d="m 14.498798,686.97077 45.527895,-17.5578"
         id="path5454"
         inkscape:connector-curvature="0" />
      <path
         sodipodi:nodetypes="ccccc"
         inkscape:connector-curvature="0"
         id="path15750-1-40-6"
         d="m 210.74563,718.31433 7.37482,-2.76102 15.878,21.27392 -21.42397,7.06456 z"
         style="fill:#a1ce9e;fill-opacity:1;stroke:#000000;stroke-width:0.76903969px;stroke-linecap:butt;stroke-linejoin:miter;stroke-opacity:1" />
      <path
         sodipodi:nodetypes="cc"
         style="fill:#ff6600;stroke:#ff6600;stroke-width:0.97514236;stroke-linecap:butt;stroke-linejoin:miter;stroke-miterlimit:4;stroke-opacity:1;stroke-dasharray:2.92542706, 0.97514235;stroke-dashoffset:0;marker-end:url(#Arrow1Mendna)"
         d="m 224.47085,745.69484 -9.08718,-20.21209"
         id="path5456"
         inkscape:connector-curvature="0" />
      <path
         style="fill:#ff6600;stroke:#ff6600;stroke-width:0.97514236;stroke-linecap:butt;stroke-linejoin:miter;stroke-miterlimit:4;stroke-opacity:1;stroke-dasharray:2.92542706, 0.97514235;stroke-dashoffset:0;marker-end:url(#Arrow1MendC)"
         d="M 244.95147,771.70442 226.23694,748.47894"
         id="path5458"
         inkscape:connector-curvature="0" />
      <path
         sodipodi:nodetypes="ccccc"
         inkscape:connector-curvature="0"
         id="path15750-1-40-6-1"
         d="m 246.81916,783.18072 9.37294,-10.33359 31.94453,26.23401 -10.20715,12.43369 z"
         style="fill:#a1ce9e;fill-opacity:1;stroke:#000000;stroke-width:0.76903969px;stroke-linecap:butt;stroke-linejoin:miter;stroke-opacity:1" />
      <path
         style="fill:#ff6600;stroke:#ff6600;stroke-width:0.97514236;stroke-linecap:butt;stroke-linejoin:miter;stroke-miterlimit:4;stroke-opacity:1;stroke-dasharray:2.92542706, 0.97514235;stroke-dashoffset:0;marker-end:url(#Arrow1MendYk)"
         d="M 283.82735,805.81431 249.6975,776.79175"
         id="path5460"
         inkscape:connector-curvature="0" />
      <path
         sodipodi:nodetypes="ccccc"
         inkscape:connector-curvature="0"
         id="path15750-1-49"
         d="m 69.996647,662.99852 -0.491117,11.17326 32.98011,2.74448 0.84248,-6.68039 z"
         style="fill:#a1ce9e;fill-opacity:1;stroke:#000000;stroke-width:0.76903969px;stroke-linecap:butt;stroke-linejoin:miter;stroke-opacity:1" />
      <path
         sodipodi:nodetypes="ccccc"
         inkscape:connector-curvature="0"
         id="path15750-1-9"
         d="m 73.812983,646.25342 -2.915998,8.44446 32.124365,12.62103 2.82088,-6.71788 z"
         style="fill:#9ece9e;fill-opacity:1;stroke:#000000;stroke-width:0.76903969px;stroke-linecap:butt;stroke-linejoin:miter;stroke-opacity:1" />
      <path
         sodipodi:nodetypes="cc"
         style="fill:#ff6600;stroke:#ff6600;stroke-width:0.97514236;stroke-linecap:butt;stroke-linejoin:miter;stroke-miterlimit:4;stroke-opacity:1;stroke-dasharray:2.92542706, 0.97514235;stroke-dashoffset:0;marker-end:url(#Arrow1MendB)"
         d="m 71.629072,649.99691 34.343908,14.64677"
         id="path5450-7"
         inkscape:connector-curvature="0" />
      <path
         sodipodi:nodetypes="cc"
         style="fill:#ff6600;stroke:#ff6600;stroke-width:0.97514236;stroke-linecap:butt;stroke-linejoin:miter;stroke-miterlimit:4;stroke-opacity:1;stroke-dasharray:2.92542706, 0.97514235;stroke-dashoffset:0;marker-end:url(#Arrow1MendB)"
         d="m 69.73029,668.85015 32.3821,4.56592"
         id="path5450-70"
         inkscape:connector-curvature="0" />
      <path
         sodipodi:nodetypes="ccccc"
         inkscape:connector-curvature="0"
         id="path15750-1-40-60"
         d="m 135.67421,713.48323 24.77635,-54.74592 40.16255,12.76271 -25.73634,58.89793 z"
         style="fill:#00ff00;fill-opacity:1;stroke:#000000;stroke-width:0.76903969px;stroke-linecap:butt;stroke-linejoin:miter;stroke-opacity:1" />
      <path
         sodipodi:nodetypes="cc"
         style="fill:#ff6600;stroke:#ff6600;stroke-width:0.97514236;stroke-linecap:butt;stroke-linejoin:miter;stroke-miterlimit:4;stroke-opacity:1;stroke-dasharray:2.92542706, 0.97514235;stroke-dashoffset:0;marker-end:url(#Arrow1MendL)"
         d="m 113.41951,672.2268 24.10128,9.19552"
         id="path5428"
         inkscape:connector-curvature="0" />
      <path
         sodipodi:nodetypes="ccccc"
         inkscape:connector-curvature="0"
         id="path15750-1-40-6-8-6"
         d="m 179.62591,731.16576 25.34922,-56.29326 3.04883,27.09482 -3.20469,9.99336 z"
         style="fill:#a1ce9e;fill-opacity:1;stroke:#000000;stroke-width:0.76903969px;stroke-linecap:butt;stroke-linejoin:miter;stroke-opacity:1" />
      <path
         transform="matrix(0.76903971,0,0,0.76903971,21.775809,482.97882)"
         d="m 69.285712,217.3125 c 0,1.7752 -1.439085,3.21429 -3.214286,3.21429 -1.775201,0 -3.214285,-1.43909 -3.214285,-3.21429 0,-1.7752 1.439084,-3.21429 3.214285,-3.21429 1.775201,0 3.214286,1.43909 3.214286,3.21429 z"
         sodipodi:ry="3.2142856"
         sodipodi:rx="3.2142856"
         sodipodi:cy="217.3125"
         sodipodi:cx="66.071426"
         id="path4469"
         style="opacity:0.90000006;fill:#d40000;fill-opacity:1;stroke:#000000;stroke-width:0.5;stroke-miterlimit:4;stroke-opacity:1;stroke-dasharray:none;stroke-dashoffset:0"
         sodipodi:type="arc" />
      <path
         transform="matrix(0.76903971,0,0,0.76903971,19.303898,501.65551)"
         d="m 69.285712,217.3125 c 0,1.7752 -1.439085,3.21429 -3.214286,3.21429 -1.775201,0 -3.214285,-1.43909 -3.214285,-3.21429 0,-1.7752 1.439084,-3.21429 3.214285,-3.21429 1.775201,0 3.214286,1.43909 3.214286,3.21429 z"
         sodipodi:ry="3.2142856"
         sodipodi:rx="3.2142856"
         sodipodi:cy="217.3125"
         sodipodi:cx="66.071426"
         id="path4469-7"
         style="opacity:0.90000006;fill:#d40000;fill-opacity:1;stroke:#000000;stroke-width:0.5;stroke-miterlimit:4;stroke-opacity:1;stroke-dasharray:none;stroke-dashoffset:0"
         sodipodi:type="arc" />
      <path
         transform="matrix(0.76903971,0,0,0.76903971,-38.044492,520.33218)"
         d="m 69.285712,217.3125 c 0,1.7752 -1.439085,3.21429 -3.214286,3.21429 -1.775201,0 -3.214285,-1.43909 -3.214285,-3.21429 0,-1.7752 1.439084,-3.21429 3.214285,-3.21429 1.775201,0 3.214286,1.43909 3.214286,3.21429 z"
         sodipodi:ry="3.2142856"
         sodipodi:rx="3.2142856"
         sodipodi:cy="217.3125"
         sodipodi:cx="66.071426"
         id="path4469-0"
         style="opacity:0.90000006;fill:#d40000;fill-opacity:1;stroke:#000000;stroke-width:0.5;stroke-miterlimit:4;stroke-opacity:1;stroke-dasharray:none;stroke-dashoffset:0"
         sodipodi:type="arc" />
      <path
         transform="matrix(0.76903971,0,0,0.76903971,-25.135612,481.60554)"
         d="m 69.285712,217.3125 c 0,1.7752 -1.439085,3.21429 -3.214286,3.21429 -1.775201,0 -3.214285,-1.43909 -3.214285,-3.21429 0,-1.7752 1.439084,-3.21429 3.214285,-3.21429 1.775201,0 3.214286,1.43909 3.214286,3.21429 z"
         sodipodi:ry="3.2142856"
         sodipodi:rx="3.2142856"
         sodipodi:cy="217.3125"
         sodipodi:cx="66.071426"
         id="path4469-4"
         style="opacity:0.90000006;fill:#d40000;fill-opacity:1;stroke:#000000;stroke-width:0.5;stroke-miterlimit:4;stroke-opacity:1;stroke-dasharray:none;stroke-dashoffset:0"
         sodipodi:type="arc" />
      <path
         transform="matrix(0.76903971,0,0,0.76903971,61.656011,505.77536)"
         d="m 69.285712,217.3125 c 0,1.7752 -1.439085,3.21429 -3.214286,3.21429 -1.775201,0 -3.214285,-1.43909 -3.214285,-3.21429 0,-1.7752 1.439084,-3.21429 3.214285,-3.21429 1.775201,0 3.214286,1.43909 3.214286,3.21429 z"
         sodipodi:ry="3.2142856"
         sodipodi:rx="3.2142856"
         sodipodi:cy="217.3125"
         sodipodi:cx="66.071426"
         id="path4469-08"
         style="opacity:0.90000006;fill:#d40000;fill-opacity:1;stroke:#000000;stroke-width:0.5;stroke-miterlimit:4;stroke-opacity:1;stroke-dasharray:none;stroke-dashoffset:0"
         sodipodi:type="arc" />
      <path
         transform="matrix(0.76903971,0,0,0.76903971,136.52362,533.44908)"
         d="m 69.285712,217.3125 c 0,1.7752 -1.439085,3.21429 -3.214286,3.21429 -1.775201,0 -3.214285,-1.43909 -3.214285,-3.21429 0,-1.7752 1.439084,-3.21429 3.214285,-3.21429 1.775201,0 3.214286,1.43909 3.214286,3.21429 z"
         sodipodi:ry="3.2142856"
         sodipodi:rx="3.2142856"
         sodipodi:cy="217.3125"
         sodipodi:cx="66.071426"
         id="path4469-5"
         style="opacity:0.90000006;fill:#d40000;fill-opacity:1;stroke:#000000;stroke-width:0.5;stroke-miterlimit:4;stroke-opacity:1;stroke-dasharray:none;stroke-dashoffset:0"
         sodipodi:type="arc" />
      <path
         transform="matrix(0.76903971,0,0,-0.76903971,155.58872,874.62603)"
         d="m 69.285712,217.3125 c 0,1.7752 -1.439085,3.21429 -3.214286,3.21429 -1.775201,0 -3.214285,-1.43909 -3.214285,-3.21429 0,-1.7752 1.439084,-3.21429 3.214285,-3.21429 1.775201,0 3.214286,1.43909 3.214286,3.21429 z"
         sodipodi:ry="3.2142856"
         sodipodi:rx="3.2142856"
         sodipodi:cy="217.3125"
         sodipodi:cx="66.071426"
         id="path4469-1"
         style="opacity:0.90000006;fill:#d40000;fill-opacity:1;stroke:#000000;stroke-width:0.5;stroke-miterlimit:4;stroke-opacity:1;stroke-dasharray:none;stroke-dashoffset:0"
         sodipodi:type="arc" />
      <path
         transform="matrix(0.76903971,0,0,0.76903971,172.78225,573.45085)"
         d="m 69.285712,217.3125 c 0,1.7752 -1.439085,3.21429 -3.214286,3.21429 -1.775201,0 -3.214285,-1.43909 -3.214285,-3.21429 0,-1.7752 1.439084,-3.21429 3.214285,-3.21429 1.775201,0 3.214286,1.43909 3.214286,3.21429 z"
         sodipodi:ry="3.2142856"
         sodipodi:rx="3.2142856"
         sodipodi:cy="217.3125"
         sodipodi:cx="66.071426"
         id="path4469-6"
         style="opacity:0.90000006;fill:#d40000;fill-opacity:1;stroke:#000000;stroke-width:0.5;stroke-miterlimit:4;stroke-opacity:1;stroke-dasharray:none;stroke-dashoffset:0"
         sodipodi:type="arc" />
      <path
         transform="matrix(0.76903971,0,0,0.76903971,194.86468,525.00135)"
         d="m 69.285712,217.3125 c 0,1.7752 -1.439085,3.21429 -3.214286,3.21429 -1.775201,0 -3.214285,-1.43909 -3.214285,-3.21429 0,-1.7752 1.439084,-3.21429 3.214285,-3.21429 1.775201,0 3.214286,1.43909 3.214286,3.21429 z"
         sodipodi:ry="3.2142856"
         sodipodi:rx="3.2142856"
         sodipodi:cy="217.3125"
         sodipodi:cx="66.071426"
         id="path4469-62"
         style="opacity:0.90000006;fill:#d40000;fill-opacity:1;stroke:#000000;stroke-width:0.5;stroke-miterlimit:4;stroke-opacity:1;stroke-dasharray:none;stroke-dashoffset:0"
         sodipodi:type="arc" />
      <path
         transform="matrix(0.76903971,0,0,0.76903971,216.83724,496.65675)"
         d="m 69.285712,217.3125 c 0,1.7752 -1.439085,3.21429 -3.214286,3.21429 -1.775201,0 -3.214285,-1.43909 -3.214285,-3.21429 0,-1.7752 1.439084,-3.21429 3.214285,-3.21429 1.775201,0 3.214286,1.43909 3.214286,3.21429 z"
         sodipodi:ry="3.2142856"
         sodipodi:rx="3.2142856"
         sodipodi:cy="217.3125"
         sodipodi:cx="66.071426"
         id="path4469-19"
         style="opacity:0.90000006;fill:#d40000;fill-opacity:1;stroke:#000000;stroke-width:0.5;stroke-miterlimit:4;stroke-opacity:1;stroke-dasharray:none;stroke-dashoffset:0"
         sodipodi:type="arc" />
      <path
         transform="matrix(0.76903971,0,0,0.76903971,220.40778,471.11364)"
         d="m 69.285712,217.3125 c 0,1.7752 -1.439085,3.21429 -3.214286,3.21429 -1.775201,0 -3.214285,-1.43909 -3.214285,-3.21429 0,-1.7752 1.439084,-3.21429 3.214285,-3.21429 1.775201,0 3.214286,1.43909 3.214286,3.21429 z"
         sodipodi:ry="3.2142856"
         sodipodi:rx="3.2142856"
         sodipodi:cy="217.3125"
         sodipodi:cx="66.071426"
         id="path4469-64"
         style="opacity:0.90000006;fill:#d40000;fill-opacity:1;stroke:#000000;stroke-width:0.5;stroke-miterlimit:4;stroke-opacity:1;stroke-dasharray:none;stroke-dashoffset:0"
         sodipodi:type="arc" />
      <path
         transform="matrix(0.76903971,0,0,0.76903971,245.95089,484.57184)"
         d="m 69.285712,217.3125 c 0,1.7752 -1.439085,3.21429 -3.214286,3.21429 -1.775201,0 -3.214285,-1.43909 -3.214285,-3.21429 0,-1.7752 1.439084,-3.21429 3.214285,-3.21429 1.775201,0 3.214286,1.43909 3.214286,3.21429 z"
         sodipodi:ry="3.2142856"
         sodipodi:rx="3.2142856"
         sodipodi:cy="217.3125"
         sodipodi:cx="66.071426"
         id="path4469-8"
         style="opacity:0.90000006;fill:#d40000;fill-opacity:1;stroke:#000000;stroke-width:0.5;stroke-miterlimit:4;stroke-opacity:1;stroke-dasharray:none;stroke-dashoffset:0"
         sodipodi:type="arc" />
      <path
         transform="matrix(0.76903971,0,0,0.76903971,232.21804,445.57053)"
         d="m 69.285712,217.3125 c 0,1.7752 -1.439085,3.21429 -3.214286,3.21429 -1.775201,0 -3.214285,-1.43909 -3.214285,-3.21429 0,-1.7752 1.439084,-3.21429 3.214285,-3.21429 1.775201,0 3.214286,1.43909 3.214286,3.21429 z"
         sodipodi:ry="3.2142856"
         sodipodi:rx="3.2142856"
         sodipodi:cy="217.3125"
         sodipodi:cx="66.071426"
         id="path4469-081"
         style="opacity:0.90000006;fill:#d40000;fill-opacity:1;stroke:#000000;stroke-width:0.5;stroke-miterlimit:4;stroke-opacity:1;stroke-dasharray:none;stroke-dashoffset:0"
         sodipodi:type="arc" />
      <path
         transform="matrix(0.76903971,0,0,0.76903971,305.27681,454.0849)"
         d="m 69.285712,217.3125 c 0,1.7752 -1.439085,3.21429 -3.214286,3.21429 -1.775201,0 -3.214285,-1.43909 -3.214285,-3.21429 0,-1.7752 1.439084,-3.21429 3.214285,-3.21429 1.775201,0 3.214286,1.43909 3.214286,3.21429 z"
         sodipodi:ry="3.2142856"
         sodipodi:rx="3.2142856"
         sodipodi:cy="217.3125"
         sodipodi:cx="66.071426"
         id="path4469-02"
         style="opacity:0.90000006;fill:#d40000;fill-opacity:1;stroke:#000000;stroke-width:0.5;stroke-miterlimit:4;stroke-opacity:1;stroke-dasharray:none;stroke-dashoffset:0"
         sodipodi:type="arc" />
      <path
         transform="matrix(0.76903971,0,0,0.76903971,193.38153,603.93779)"
         d="m 69.285712,217.3125 c 0,1.7752 -1.439085,3.21429 -3.214286,3.21429 -1.775201,0 -3.214285,-1.43909 -3.214285,-3.21429 0,-1.7752 1.439084,-3.21429 3.214285,-3.21429 1.775201,0 3.214286,1.43909 3.214286,3.21429 z"
         sodipodi:ry="3.2142856"
         sodipodi:rx="3.2142856"
         sodipodi:cy="217.3125"
         sodipodi:cx="66.071426"
         id="path4469-2"
         style="opacity:0.90000006;fill:#d40000;fill-opacity:1;stroke:#000000;stroke-width:0.5;stroke-miterlimit:4;stroke-opacity:1;stroke-dasharray:none;stroke-dashoffset:0"
         sodipodi:type="arc" />
      <path
         transform="matrix(0.76903971,0,0,0.76903971,233.2068,638.81923)"
         d="m 69.285712,217.3125 c 0,1.7752 -1.439085,3.21429 -3.214286,3.21429 -1.775201,0 -3.214285,-1.43909 -3.214285,-3.21429 0,-1.7752 1.439084,-3.21429 3.214285,-3.21429 1.775201,0 3.214286,1.43909 3.214286,3.21429 z"
         sodipodi:ry="3.2142856"
         sodipodi:rx="3.2142856"
         sodipodi:cy="217.3125"
         sodipodi:cx="66.071426"
         id="path4469-9"
         style="opacity:0.90000006;fill:#d40000;fill-opacity:1;stroke:#000000;stroke-width:0.5;stroke-miterlimit:4;stroke-opacity:1;stroke-dasharray:none;stroke-dashoffset:0"
         sodipodi:type="arc" />
      <path
         sodipodi:nodetypes="cc"
         style="fill:#ff6600;stroke:#ff6600;stroke-width:0.97514236;stroke-linecap:butt;stroke-linejoin:miter;stroke-miterlimit:4;stroke-opacity:1;stroke-dasharray:2.92542706, 0.97514235;stroke-dashoffset:0;marker-end:url(#Arrow1MendL)"
         d="M 185.00407,699.34508 150.02692,687.04216"
         id="path5428-4"
         inkscape:connector-curvature="0" />
      <path
         sodipodi:nodetypes="cc"
         style="fill:#ff6600;stroke:#ff6600;stroke-width:0.97514236;stroke-linecap:butt;stroke-linejoin:miter;stroke-miterlimit:4;stroke-opacity:1;stroke-dasharray:2.92542706, 0.97514235;stroke-dashoffset:0;marker-end:url(#Arrow1MendL)"
         d="m 205.97267,706.8824 -13.61385,-3.75759"
         id="path5428-4-2"
         inkscape:connector-curvature="0" />
      <path
         transform="matrix(0.76903971,0,0,0.76903971,93.602152,516.88708)"
         d="m 69.285712,217.3125 c 0,1.7752 -1.439085,3.21429 -3.214286,3.21429 -1.775201,0 -3.214285,-1.43909 -3.214285,-3.21429 0,-1.7752 1.439084,-3.21429 3.214285,-3.21429 1.775201,0 3.214286,1.43909 3.214286,3.21429 z"
         sodipodi:ry="3.2142856"
         sodipodi:rx="3.2142856"
         sodipodi:cy="217.3125"
         sodipodi:cx="66.071426"
         id="path4469-4-4"
         style="opacity:0.90000006;fill:#0000ff;fill-opacity:1;stroke:#000000;stroke-width:0.5;stroke-miterlimit:4;stroke-opacity:1;stroke-dasharray:none;stroke-dashoffset:0"
         sodipodi:type="arc" />
    </g>
  </g>
</svg>
