<?xml version="1.0" encoding="UTF-8"?><svg xmlns="http://www.w3.org/2000/svg" xmlns:xlink="http://www.w3.org/1999/xlink" fill-opacity="1" color-rendering="auto" color-interpolation="auto" stroke="black" text-rendering="auto" stroke-linecap="square" width="370" stroke-miterlimit="10" stroke-opacity="1" shape-rendering="auto" fill="black" stroke-dasharray="none" font-weight="normal" stroke-width="1" height="306" font-family="'Dialog'" font-style="normal" stroke-linejoin="miter" font-size="12" stroke-dashoffset="0" image-rendering="auto">
  <!--Generated by ySVG-->
  <defs id="genericDefs"/>
  <g>
    <defs id="defs1">
      <clipPath clipPathUnits="userSpaceOnUse" id="clipPath1">
        <path d="M0 0 L370 0 L370 306 L0 306 L0 0 Z"/>
      </clipPath>
      <clipPath clipPathUnits="userSpaceOnUse" id="clipPath2">
        <path d="M-143 134 L417.606 134 L417.606 597.6364 L-143 597.6364 L-143 134 Z"/>
      </clipPath>
      <clipPath clipPathUnits="userSpaceOnUse" id="clipPath3">
        <path d="M42 277 L42 343 L166 343 L166 277 Z"/>
      </clipPath>
      <clipPath clipPathUnits="userSpaceOnUse" id="clipPath4">
        <path d="M0 0 L0 13 L62 13 L62 0 Z"/>
      </clipPath>
      <clipPath clipPathUnits="userSpaceOnUse" id="clipPath5">
        <path d="M248 315 L248 349 L385 349 L385 315 Z"/>
      </clipPath>
      <clipPath clipPathUnits="userSpaceOnUse" id="clipPath6">
        <path d="M248 262 L248 290 L385 290 L385 262 Z"/>
      </clipPath>
      <clipPath clipPathUnits="userSpaceOnUse" id="clipPath7">
        <path d="M-117 275 L-117 303 L-54 303 L-54 275 Z"/>
      </clipPath>
    </defs>
    <g fill="white" transform="scale(0.66,0.66) translate(143,-134)" stroke="white">
      <rect x="-143" width="561" height="464" y="134" clip-path="url(#clipPath2)" stroke="none"/>
    </g>
    <g fill="rgb(211,231,180)" transform="matrix(0.66,0,0,0.66,94.38,-88.44)" stroke="rgb(211,231,180)">
      <rect x="-31.9561" y="249.32" clip-path="url(#clipPath2)" width="258.035" rx="4" ry="4" height="109.2896" stroke="none"/>
    </g>
    <g stroke-linecap="butt" transform="matrix(0.66,0,0,0.66,94.38,-88.44)" stroke-miterlimit="1.45">
      <rect x="-31.9561" y="249.32" clip-path="url(#clipPath2)" fill="none" width="258.035" rx="4" ry="4" height="109.2896"/>
    </g>
    <g fill="rgb(255,204,170)" transform="matrix(0.66,0,0,0.66,94.38,-88.44)" stroke="rgb(255,204,170)">
      <rect x="230.8677" y="249.32" clip-path="url(#clipPath2)" width="163.2504" rx="4" ry="4" height="109.2896" stroke="none"/>
    </g>
    <g stroke-linecap="butt" transform="matrix(0.66,0,0,0.66,94.38,-88.44)" stroke-miterlimit="1.45">
      <rect x="230.8677" y="249.32" clip-path="url(#clipPath2)" fill="none" width="163.2504" rx="4" ry="4" height="109.2896"/>
    </g>
    <g fill="rgb(255,204,0)" transform="matrix(0.66,0,0,0.66,94.38,-88.44)" stroke="rgb(255,204,0)">
      <rect x="43" width="122" height="64" y="278" clip-path="url(#clipPath2)" stroke="none"/>
      <rect x="42" y="277" clip-path="url(#clipPath2)" fill="yellow" width="1" height="66" stroke="none"/>
      <rect x="43" y="277" clip-path="url(#clipPath2)" fill="yellow" width="122" height="1" stroke="none"/>
      <rect x="43" y="342" clip-path="url(#clipPath2)" fill="rgb(178,142,0)" width="123" height="1" stroke="none"/>
      <rect x="165" y="277" clip-path="url(#clipPath2)" fill="rgb(178,142,0)" width="1" height="65" stroke="none"/>
    </g>
    <g font-size="10" stroke-miterlimit="1.45" font-weight="bold" font-family="'MgOpen Moderna'" transform="matrix(0.66,0,0,0.66,94.38,-88.44)" stroke-linecap="butt">
      <text x="50.5676" xml:space="preserve" y="291.6849" clip-path="url(#clipPath3)" stroke="none">PostSynapticTemplate</text>
    </g>
    <g transform="matrix(0.66,0,0,0.66,94.38,-88.44)">
      <line y2="299" fill="none" x1="43" clip-path="url(#clipPath3)" x2="165" y1="299"/>
      <line y2="309" fill="none" x1="43" clip-path="url(#clipPath3)" x2="165" y1="309"/>
    </g>
    <g font-size="10" stroke-miterlimit="1.45" font-family="sans-serif" transform="matrix(0.66,0,0,0.66,94.38,-88.44) translate(47,314)" stroke-linecap="butt">
      <text x="0" xml:space="preserve" y="10" clip-path="url(#clipPath4)" stroke="none">instantiate()</text>
      <text x="59" xml:space="preserve" y="10" clip-path="url(#clipPath4)" stroke="none"> </text>
    </g>
    <g fill="rgb(255,204,0)" transform="matrix(0.66,0,0,0.66,94.38,-88.44)" stroke="rgb(255,204,0)">
      <rect x="249" width="135" height="32" y="316" clip-path="url(#clipPath2)" stroke="none"/>
      <rect x="248" y="315" clip-path="url(#clipPath2)" fill="yellow" width="1" height="34" stroke="none"/>
      <rect x="249" y="315" clip-path="url(#clipPath2)" fill="yellow" width="135" height="1" stroke="none"/>
      <rect x="249" y="348" clip-path="url(#clipPath2)" fill="rgb(178,142,0)" width="136" height="1" stroke="none"/>
      <rect x="384" y="315" clip-path="url(#clipPath2)" fill="rgb(178,142,0)" width="1" height="33" stroke="none"/>
    </g>
    <g font-size="10" stroke-miterlimit="1.45" font-weight="bold" font-family="'MgOpen Moderna'" transform="matrix(0.66,0,0,0.66,94.38,-88.44)" stroke-linecap="butt">
      <text x="256.4539" xml:space="preserve" y="329.1688" clip-path="url(#clipPath5)" stroke="none">PostSynapticInstantiation</text>
    </g>
    <g fill="rgb(255,255,153)" transform="matrix(0.66,0,0,0.66,94.38,-88.44)" stroke="rgb(255,255,153)">
      <path d="M-33.8612 157.4494 L297.7788 157.4494 L297.7788 172.4494 L312.7788 172.4494 L312.7788 223.7094 L-33.8612 223.7094 Z" clip-path="url(#clipPath2)" stroke="none"/>
      <path fill="white" d="M297.7788 157.4494 L297.7788 172.4494 L312.7788 172.4494 Z" clip-path="url(#clipPath2)" fill-rule="evenodd" stroke="none"/>
    </g>
    <g stroke-linecap="butt" transform="matrix(0.66,0,0,0.66,94.38,-88.44)" stroke-miterlimit="1.45">
      <path fill="none" d="M-33.8612 157.4494 L297.7788 157.4494 L297.7788 172.4494 L312.7788 172.4494 L312.7788 223.7094 L-33.8612 223.7094 Z" clip-path="url(#clipPath2)"/>
      <path fill="none" d="M297.7788 157.4494 L297.7788 172.4494 L312.7788 172.4494 Z" fill-rule="evenodd" clip-path="url(#clipPath2)"/>
      <text x="13.9928" font-size="10" y="177.2267" clip-path="url(#clipPath2)" font-family="'MgOpen Moderna'" stroke="none" xml:space="preserve">1. A PostSynapticTemplate object is constructed which </text>
      <text x="-9.1595" font-size="10" y="188.1807" clip-path="url(#clipPath2)" font-family="'MgOpen Moderna'" stroke="none" xml:space="preserve">knows how to 'instantiate' a particular type of PostSynapticObject.</text>
      <text x="-12.4128" font-size="10" y="199.1347" clip-path="url(#clipPath2)" font-family="'MgOpen Moderna'" stroke="none" xml:space="preserve">When the template object is constructed, it is given a set of default </text>
      <text x="-28.6438" font-size="10" y="210.0887" clip-path="url(#clipPath2)" font-family="'MgOpen Moderna'" stroke="none" xml:space="preserve">parameters which will be used when constructing the postsynaptic objects.</text>
    </g>
    <g fill="rgb(255,204,0)" transform="matrix(0.66,0,0,0.66,94.38,-88.44)" stroke="rgb(255,204,0)">
      <rect x="249" width="135" height="26" y="263" clip-path="url(#clipPath2)" stroke="none"/>
      <rect x="248" y="262" clip-path="url(#clipPath2)" fill="yellow" width="1" height="28" stroke="none"/>
      <rect x="249" y="262" clip-path="url(#clipPath2)" fill="yellow" width="135" height="1" stroke="none"/>
      <rect x="249" y="289" clip-path="url(#clipPath2)" fill="rgb(178,142,0)" width="136" height="1" stroke="none"/>
      <rect x="384" y="262" clip-path="url(#clipPath2)" fill="rgb(178,142,0)" width="1" height="27" stroke="none"/>
    </g>
    <g font-size="10" stroke-miterlimit="1.45" font-weight="bold" font-family="'MgOpen Moderna'" transform="matrix(0.66,0,0,0.66,94.38,-88.44)" stroke-linecap="butt">
      <text x="269.7316" xml:space="preserve" y="275.9688" clip-path="url(#clipPath6)" stroke="none">PostSynapticObject</text>
    </g>
    <g fill="rgb(255,255,153)" transform="matrix(0.66,0,0,0.66,94.38,-88.44)" stroke="rgb(255,255,153)">
      <path d="M-110.7675 384.2203 L97.0675 384.2203 L97.0675 399.2203 L112.0675 399.2203 L112.0675 443.0003 L-110.7675 443.0003 Z" clip-path="url(#clipPath2)" stroke="none"/>
      <path fill="white" d="M97.0675 384.2203 L97.0675 399.2203 L112.0675 399.2203 Z" clip-path="url(#clipPath2)" fill-rule="evenodd" stroke="none"/>
    </g>
    <g stroke-linecap="butt" transform="matrix(0.66,0,0,0.66,94.38,-88.44)" stroke-miterlimit="1.45">
      <path fill="none" d="M-110.7675 384.2203 L97.0675 384.2203 L97.0675 399.2203 L112.0675 399.2203 L112.0675 443.0003 L-110.7675 443.0003 Z" clip-path="url(#clipPath2)"/>
      <path fill="none" d="M97.0675 384.2203 L97.0675 399.2203 L112.0675 399.2203 Z" fill-rule="evenodd" clip-path="url(#clipPath2)"/>
      <text x="-94.6426" font-size="10" y="403.2744" clip-path="url(#clipPath2)" font-family="'MgOpen Moderna'" stroke="none" xml:space="preserve">2. The client calls 'instantiate(), to create a </text>
      <text x="-89.4705" font-size="10" y="414.2284" clip-path="url(#clipPath2)" font-family="'MgOpen Moderna'" stroke="none" xml:space="preserve">new PostSynaptic object. In this call the </text>
      <text x="-84.903" font-size="10" y="425.1824" clip-path="url(#clipPath2)" font-family="'MgOpen Moderna'" stroke="none" xml:space="preserve">default parameters can be overridden.</text>
      <text x="-117.3496" xml:space="preserve" y="340.854" font-family="sans-serif" clip-path="url(#clipPath2)" stroke="none">instantiate()</text>
    </g>
    <g fill="rgb(238,238,238)" fill-opacity="0.9333" transform="matrix(0.66,0,0,0.66,94.38,-88.44)" stroke-opacity="0.9333" stroke="rgb(238,238,238)">
      <rect x="156.8831" width="237.235" height="95.6479" y="479.2725" clip-path="url(#clipPath2)" stroke="none"/>
    </g>
    <g fill="rgb(255,204,0)" transform="matrix(0.66,0,0,0.66,94.38,-88.44)" stroke="rgb(255,204,0)">
      <rect x="263.6973" width="34.654" height="13" y="519.0124" clip-path="url(#clipPath2)" stroke="none"/>
    </g>
    <g font-size="10" stroke-miterlimit="1.45" font-weight="bold" font-family="'MgOpen Moderna'" transform="matrix(0.66,0,0,0.66,94.38,-88.44)" stroke-linecap="butt">
      <text x="277.1764" xml:space="preserve" y="528.6857" clip-path="url(#clipPath2)" stroke="none">A</text>
      <rect fill="none" x="263.6973" width="34.654" height="13" y="519.0124" clip-path="url(#clipPath2)"/>
    </g>
    <g fill="rgb(255,204,0)" transform="matrix(0.66,0,0,0.66,94.38,-88.44)" stroke="rgb(255,204,0)">
      <rect x="350.895" width="34.654" height="13" y="519.0124" clip-path="url(#clipPath2)" stroke="none"/>
    </g>
    <g font-size="10" stroke-miterlimit="1.45" font-weight="bold" font-family="'MgOpen Moderna'" transform="matrix(0.66,0,0,0.66,94.38,-88.44)" stroke-linecap="butt">
      <text x="364.8489" xml:space="preserve" y="528.6857" clip-path="url(#clipPath2)" stroke="none">B</text>
      <rect fill="none" x="350.895" width="34.654" height="13" y="519.0124" clip-path="url(#clipPath2)"/>
      <text x="176.9539" xml:space="preserve" y="528.5907" font-weight="normal" clip-path="url(#clipPath2)" stroke="none">A instantiates B</text>
    </g>
    <g fill="rgb(255,204,0)" transform="matrix(0.66,0,0,0.66,94.38,-88.44)" stroke="rgb(255,204,0)">
      <rect x="263.6973" width="34.654" height="13" y="487.21" clip-path="url(#clipPath2)" stroke="none"/>
    </g>
    <g font-size="10" stroke-miterlimit="1.45" font-weight="bold" font-family="'MgOpen Moderna'" transform="matrix(0.66,0,0,0.66,94.38,-88.44)" stroke-linecap="butt">
      <text x="277.1764" xml:space="preserve" y="496.8832" clip-path="url(#clipPath2)" stroke="none">A</text>
      <rect fill="none" x="263.6973" width="34.654" height="13" y="487.21" clip-path="url(#clipPath2)"/>
    </g>
    <g fill="rgb(255,204,0)" transform="matrix(0.66,0,0,0.66,94.38,-88.44)" stroke="rgb(255,204,0)">
      <rect x="350.895" width="34.654" height="13" y="487.21" clip-path="url(#clipPath2)" stroke="none"/>
    </g>
    <g font-size="10" stroke-miterlimit="1.45" font-weight="bold" font-family="'MgOpen Moderna'" transform="matrix(0.66,0,0,0.66,94.38,-88.44)" stroke-linecap="butt">
      <text x="364.8489" xml:space="preserve" y="496.8832" clip-path="url(#clipPath2)" stroke="none">B</text>
      <rect fill="none" x="350.895" width="34.654" height="13" y="487.21" clip-path="url(#clipPath2)"/>
      <text x="175.3098" xml:space="preserve" y="496.7883" font-weight="normal" clip-path="url(#clipPath2)" stroke="none">A inherits from B</text>
    </g>
    <g fill="rgb(255,204,0)" transform="matrix(0.66,0,0,0.66,94.38,-88.44)" stroke="rgb(255,204,0)">
      <rect x="263.6973" width="34.654" height="13" y="549.0124" clip-path="url(#clipPath2)" stroke="none"/>
    </g>
    <g font-size="10" stroke-miterlimit="1.45" font-weight="bold" font-family="'MgOpen Moderna'" transform="matrix(0.66,0,0,0.66,94.38,-88.44)" stroke-linecap="butt">
      <text x="277.1764" xml:space="preserve" y="558.6857" clip-path="url(#clipPath2)" stroke="none">A</text>
      <rect fill="none" x="263.6973" width="34.654" height="13" y="549.0124" clip-path="url(#clipPath2)"/>
    </g>
    <g fill="rgb(255,204,0)" transform="matrix(0.66,0,0,0.66,94.38,-88.44)" stroke="rgb(255,204,0)">
      <rect x="350.895" width="34.654" height="13" y="549.0124" clip-path="url(#clipPath2)" stroke="none"/>
    </g>
    <g font-size="10" stroke-miterlimit="1.45" font-weight="bold" font-family="'MgOpen Moderna'" transform="matrix(0.66,0,0,0.66,94.38,-88.44)" stroke-linecap="butt">
      <text x="364.8489" xml:space="preserve" y="558.6857" clip-path="url(#clipPath2)" stroke="none">B</text>
      <rect fill="none" x="350.895" width="34.654" height="13" y="549.0124" clip-path="url(#clipPath2)"/>
      <text x="164.7656" xml:space="preserve" y="558.5907" font-weight="normal" clip-path="url(#clipPath2)" stroke="none">A calls methods on B</text>
    </g>
    <g fill="rgb(255,153,85)" transform="matrix(0.66,0,0,0.66,94.38,-88.44)" stroke="rgb(255,153,85)">
      <rect x="-116" width="61" height="26" y="276" clip-path="url(#clipPath2)" stroke="none"/>
      <rect x="-117" y="275" clip-path="url(#clipPath2)" fill="rgb(255,218,121)" width="1" height="28" stroke="none"/>
      <rect x="-116" y="275" clip-path="url(#clipPath2)" fill="rgb(255,218,121)" width="61" height="1" stroke="none"/>
      <rect x="-116" y="302" clip-path="url(#clipPath2)" fill="rgb(178,107,59)" width="62" height="1" stroke="none"/>
      <rect x="-55" y="275" clip-path="url(#clipPath2)" fill="rgb(178,107,59)" width="1" height="27" stroke="none"/>
    </g>
    <g font-size="10" stroke-miterlimit="1.45" font-weight="bold" font-family="'MgOpen Moderna'" transform="matrix(0.66,0,0,0.66,94.38,-88.44)" stroke-linecap="butt">
      <text x="-99.2924" xml:space="preserve" y="289.37" clip-path="url(#clipPath7)" stroke="none">Client</text>
      <text x="-12.0391" font-size="12" y="281.2791" clip-path="url(#clipPath2)" font-family="sans-serif" stroke="none" font-weight="normal" xml:space="preserve">new()</text>
    </g>
    <g fill="rgb(255,255,153)" transform="matrix(0.66,0,0,0.66,94.38,-88.44)" stroke="rgb(255,255,153)">
      <path d="M124.7293 384.2203 L379.1182 384.2203 L379.1182 399.2203 L394.1182 399.2203 L394.1182 443.0003 L124.7293 443.0003 Z" clip-path="url(#clipPath2)" stroke="none"/>
      <path fill="white" d="M379.1182 384.2203 L379.1182 399.2203 L394.1182 399.2203 Z" clip-path="url(#clipPath2)" fill-rule="evenodd" stroke="none"/>
    </g>
    <g stroke-linecap="butt" transform="matrix(0.66,0,0,0.66,94.38,-88.44)" stroke-miterlimit="1.45">
      <path fill="none" d="M124.7293 384.2203 L379.1182 384.2203 L379.1182 399.2203 L394.1182 399.2203 L394.1182 443.0003 L124.7293 443.0003 Z" clip-path="url(#clipPath2)"/>
      <path fill="none" d="M379.1182 384.2203 L379.1182 399.2203 L394.1182 399.2203 Z" fill-rule="evenodd" clip-path="url(#clipPath2)"/>
      <text x="139.8944" font-size="10" y="403.2744" clip-path="url(#clipPath2)" font-family="'MgOpen Moderna'" stroke="none" xml:space="preserve">3. The template object creates a new instantantiation</text>
      <text x="149.6041" font-size="10" y="414.2284" clip-path="url(#clipPath2)" font-family="'MgOpen Moderna'" stroke="none" xml:space="preserve"> object. This object maintain a reference back to </text>
      <text x="154.5564" font-size="10" y="425.1824" clip-path="url(#clipPath2)" font-family="'MgOpen Moderna'" stroke="none" xml:space="preserve">the template object, in order to make backend </text>
      <text x="185.1646" font-size="10" y="436.1364" clip-path="url(#clipPath2)" font-family="'MgOpen Moderna'" stroke="none" xml:space="preserve">specific code-generation simpler.</text>
      <text x="181.4534" xml:space="preserve" y="340.854" font-family="sans-serif" clip-path="url(#clipPath2)" stroke="none">new()</text>
      <path fill="none" stroke-dasharray="6,2" d="M166.787 324.9119 L237.5452 324.9119" clip-path="url(#clipPath2)"/>
      <path stroke-dasharray="6,2" d="M248.5452 324.9119 L236.5452 318.9119 L236.5452 330.9119 Z" clip-path="url(#clipPath2)" stroke="none"/>
      <path fill="none" d="M311.6182 315.448 L311.6182 305.2603" clip-path="url(#clipPath2)"/>
      <path fill="white" d="M311.6182 290.2603 L305.6182 306.2603 L317.6182 306.2603 Z" clip-path="url(#clipPath2)" stroke="none"/>
      <path fill="none" d="M311.6182 290.2603 L305.6182 306.2603 L317.6182 306.2603 Z" clip-path="url(#clipPath2)"/>
      <path fill="none" stroke-dasharray="6,2" d="M-72.2333 384.2219 L-72.2333 344.1714" clip-path="url(#clipPath2)"/>
      <path fill="none" stroke-dasharray="6,2" d="M298.3513 525.5124 L339.895 525.5124" clip-path="url(#clipPath2)"/>
      <path stroke-dasharray="6,2" d="M350.895 525.5124 L338.895 519.5124 L338.895 531.5124 Z" clip-path="url(#clipPath2)" stroke="none"/>
      <path fill="none" d="M298.3513 493.71 L335.895 493.71" clip-path="url(#clipPath2)"/>
      <path fill="white" d="M350.895 493.71 L334.895 487.71 L334.895 499.71 Z" clip-path="url(#clipPath2)" stroke="none"/>
      <path fill="none" d="M350.895 493.71 L334.895 487.71 L334.895 499.71 Z" clip-path="url(#clipPath2)"/>
      <path fill="none" d="M298.3513 555.5124 L339.895 555.5124" clip-path="url(#clipPath2)"/>
      <path d="M350.895 555.5124 L338.895 549.5124 L338.895 561.5124 Z" clip-path="url(#clipPath2)" stroke="none"/>
      <path fill="none" stroke-dasharray="6,2" d="M-53.5085 289.6248 L31.0548 289.6248" clip-path="url(#clipPath2)"/>
      <path stroke-dasharray="6,2" d="M42.0548 289.6248 L30.0548 283.6248 L30.0548 295.6248 Z" clip-path="url(#clipPath2)" stroke="none"/>
      <path fill="none" d="M-85.5 303.6122 L-85.5 321.6674 L31.0439 321.6674" clip-path="url(#clipPath2)"/>
      <path d="M42.0439 321.6674 L30.0439 315.6674 L30.0439 327.6674 Z" clip-path="url(#clipPath2)" stroke="none"/>
      <path fill="none" stroke-dasharray="6,2" d="M-1.3561 223.7227 L-1.3561 269.6412" clip-path="url(#clipPath2)"/>
      <path fill="none" stroke-dasharray="6,2" d="M198.5364 384.2165 L198.5364 370.0403 L198.5364 370.0403 L198.5364 344.2209" clip-path="url(#clipPath2)"/>
    </g>
  </g>
</svg>
